<svg id="OBJECTS" xmlns="http://www.w3.org/2000/svg" viewBox="0 0 747.25 125.06"><defs><style>.cls-1{fill:#d3d1cf;}</style></defs><path class="cls-1" d="M374.69,303.77H191.75a.27.27,0,0,0-.27.27.28.28,0,0,0,.27.28H374.69A.29.29,0,0,0,375,304,.28.28,0,0,0,374.69,303.77Z" transform="translate(-0.75 -179.26)"/><path class="cls-1" d="M184.85,303.77H28.11a.28.28,0,0,0-.28.27.29.29,0,0,0,.28.28H184.85a.28.28,0,0,0,.27-.28A.27.27,0,0,0,184.85,303.77Z" transform="translate(-0.75 -179.26)"/><path class="cls-1" d="M73.7,269.06a.26.26,0,0,0-.28,0,32.09,32.09,0,0,1-9.84,3.5c-1.46.12-7,.41-13.18.21a70.38,70.38,0,0,1-9.71-.9,22.64,22.64,0,0,1-6.26-2.31.29.29,0,0,0-.27,0,.29.29,0,0,0-.14.24v2.34a.27.27,0,0,0,.12.22,11.38,11.38,0,0,0,2.77,1.18,41.3,41.3,0,0,0,6.9,1.48v1.36h-.66a.27.27,0,0,0-.27.27v2a.27.27,0,0,0,.27.27h.4v.79H42.32a.27.27,0,0,0-.27.27v.4H36.8a.27.27,0,0,0-.27.27v2a.27.27,0,0,0,.27.27h6.75v17.5h-.4a.27.27,0,0,0-.27.27V304a.28.28,0,0,0,.27.28h4.68a.28.28,0,0,0,.27-.28V300.7a.27.27,0,0,0-.27-.27h-.4v-17.5H61.6v17.5h-.4a.27.27,0,0,0-.27.27V304a.28.28,0,0,0,.27.28h4.68a.28.28,0,0,0,.27-.28V300.7a.27.27,0,0,0-.27-.27h-.4v-17.5h6.08a.27.27,0,0,0,.27-.27v-2a.27.27,0,0,0-.27-.27H67V280a.27.27,0,0,0-.27-.27H65.48v-.79h.4a.27.27,0,0,0,.27-.27v-2a.27.27,0,0,0-.27-.27h-.66V275a27,27,0,0,0,6.83-2.07h0a10.08,10.08,0,0,0,1.49-.87.3.3,0,0,0,.1-.2l.16-2.5A.25.25,0,0,0,73.7,269.06Zm-27.07,6.28v1H44.35v-1.29l.24,0,1.83.21Zm-3.21,1.57h4.14v1.46H43.42Zm.67,2h2.8v.79h-2.8Zm-1.5,1.34h5.8v.12h-5.8Zm5,23.51H43.42V301h4.14Zm-.67-3.34h-.65V285.7a.27.27,0,0,0-.54,0v14.73h-.6v-4.26a.29.29,0,0,0-.28-.28.28.28,0,0,0-.27.28v4.26h-.46v-17.5h2.8Zm18.71,3.34H61.47V301H65.6Zm-.66-3.34h-.53V288.32a.27.27,0,0,0-.54,0v12.11H63.2v-8.74a.27.27,0,0,0-.54,0v8.74h-.52v-17.5h2.8Zm6.35-18H37.07v-.46H61.59a.27.27,0,0,0,.27-.27.28.28,0,0,0-.27-.28H37.07v-.45H71.29Zm-16.05-2H53.45v-3.47h1.79Zm11.24,0H60.67v-.12h5.81Zm-1.54-.67h-2.8v-.79h2.8Zm.66-1.34H61.47v-1.46H65.6Zm-4.4-2a.27.27,0,0,0-.27.27v2a.27.27,0,0,0,.27.27h.4v.79H60.4a.27.27,0,0,0-.27.27v.4H55.79v-3.74a.27.27,0,0,0-.27-.27H53.18a.27.27,0,0,0-.27.27v3.74h-4V280a.28.28,0,0,0-.28-.27H47.43v-.79h.4a.27.27,0,0,0,.27-.27v-2a.27.27,0,0,0-.27-.27h-.66v-1c2,.18,4.22.3,6.5.35.58,0,1.15,0,1.71,0a62.55,62.55,0,0,0,6.47-.32v.93Zm2.52-1.17,1-.14v1.31H62.4v-1l1.18-.15Zm8.1-2.81,0,0a26.8,26.8,0,0,1-6.9,2.06c-.9.15-1.84.29-2.8.4a64.26,64.26,0,0,1-8.42.33c-2.37-.05-4.65-.18-6.75-.38-.94-.09-1.86-.19-2.81-.32a40.25,40.25,0,0,1-7-1.49,13.32,13.32,0,0,1-2.5-1v-.74c1.3.85,5.58,3.05,15.28,3.2h0a.27.27,0,0,0,.27-.27.28.28,0,0,0-.27-.28c-10.59-.16-14.66-2.84-15.29-3.32v-.32a22.69,22.69,0,0,0,6,2.15,69.81,69.81,0,0,0,9.78.9c6.21.21,11.78-.09,13.24-.21a32.23,32.23,0,0,0,9.64-3.31l-.05.77a24.46,24.46,0,0,1-7.67,2.77.28.28,0,0,0-.22.32.28.28,0,0,0,.27.22h0a25.15,25.15,0,0,0,7.52-2.66l0,.45A9.36,9.36,0,0,1,71.82,272.39Z" transform="translate(-0.75 -179.26)"/><path class="cls-1" d="M44.63,295a.27.27,0,0,0,.19.08l.11,0A.24.24,0,0,0,45,295a.18.18,0,0,0,.06-.09.17.17,0,0,0,0-.1.25.25,0,0,0-.09-.19.26.26,0,0,0-.38,0,.27.27,0,0,0-.08.19.3.3,0,0,0,0,.1A.28.28,0,0,0,44.63,295Z" transform="translate(-0.75 -179.26)"/><path class="cls-1" d="M64.14,287.52a.28.28,0,0,0,.27-.28V287a.27.27,0,1,0-.54,0v.22A.28.28,0,0,0,64.14,287.52Z" transform="translate(-0.75 -179.26)"/><path class="cls-1" d="M51.59,273.9H51a.28.28,0,0,0-.27.28.27.27,0,0,0,.27.27h.56a.27.27,0,0,0,.27-.27C51.86,274,51.74,273.87,51.59,273.9Z" transform="translate(-0.75 -179.26)"/><path class="cls-1" d="M64.1,273.52l-.55.06a.27.27,0,0,0,0,.54h0l.57-.05a.27.27,0,0,0,.24-.3A.27.27,0,0,0,64.1,273.52Z" transform="translate(-0.75 -179.26)"/><path class="cls-1" d="M63.54,281.38h-.72a.29.29,0,0,0-.28.28.28.28,0,0,0,.28.27h.72a.27.27,0,0,0,.27-.27A.28.28,0,0,0,63.54,281.38Z" transform="translate(-0.75 -179.26)"/><path class="cls-1" d="M257.07,292.12V288a.09.09,0,0,0,0-.05s0,0,0-.05l0,0a.08.08,0,0,0,0,0l0,0-.05,0h0c-10.47-2.81-18.24-15.29-18.84-16.28v-3.42a.27.27,0,0,0-.27-.27h0v-.35a.27.27,0,1,0-.54,0v.35H237a.28.28,0,0,0-.28.27v.25h-4.37v-.25a.27.27,0,0,0-.27-.27h0v-.35a.28.28,0,0,0-.28-.27.27.27,0,0,0-.27.27v.35h0a.28.28,0,0,0-.28.27v3.43c-.51,1-8.9,17.18-26.71,17.4h-.35c-17.55,0-26.41-16.3-27-17.4v-3.43a.27.27,0,0,0-.27-.27h0v-.35a.27.27,0,1,0-.54,0v.35h-.24a.27.27,0,0,0-.27.27v.25h-4.38v-.25a.27.27,0,0,0-.27-.27h0v-.35a.28.28,0,0,0-.28-.27.27.27,0,0,0-.27.27v.35h0a.28.28,0,0,0-.28.27v3.42c-8,13.62-18.92,16.25-19,16.27h0l-.05,0,0,0,0,0,0,.05s0,0,0,0,0,0,0,.06v4.13h0v2.59a.28.28,0,0,0,.28.27h19v9a.28.28,0,0,0,.28.27h1.17A.27.27,0,0,0,172,304v-1.15h3.4V304a.27.27,0,0,0,.27.27h1.18a.27.27,0,0,0,.27-.27v-9h54.05v9a.28.28,0,0,0,.28.27h1.17a.27.27,0,0,0,.27-.27v-1.15h3.4V304a.28.28,0,0,0,.28.27h1.17A.27.27,0,0,0,238,304v-9H256.8a.27.27,0,0,0,.27-.27v-2.59Zm-4.22-.27v-5.08a19.83,19.83,0,0,0,3.67,1.44v3.64Zm-4.14,0v-7.67a29.38,29.38,0,0,0,3.6,2.31v5.36Zm-.54-8.09v8.09h-3.49V280.67A39,39,0,0,0,248.17,283.76Zm-7.8,8.09V275.77a54.11,54.11,0,0,0,3.83,4.41.27.27,0,0,0-.06.17v11.5Zm-.46-16.69a.26.26,0,0,0-.08.19v16.5H238V272.49C238.43,273.1,239.07,274,239.91,275.16ZM237,268.84a.27.27,0,0,0,.27-.27v-.24h.25v23.52h-.62v-2.38a2.42,2.42,0,0,0-2.4-2.31,2.28,2.28,0,0,0-2.1,2.51v2.18h-.62V271.56h0v-3.22l0,.24a.27.27,0,0,0,.27.27Zm-4.05,23v-2.19c0-.08,0-1.9,1.57-2h.06c1.55,0,1.77,1.75,1.77,1.79v2.36Zm-1.72,0h-1.28V274.68c.56-.83,1-1.54,1.28-2.06Zm-1.83-16.38v16.38h-3.89v-8.47a.28.28,0,0,0-.55,0v8.47h-3.65v-8a.13.13,0,0,0,0-.06A36.73,36.73,0,0,0,229.36,275.47Zm-12.07,16.38v-5.63a30.52,30.52,0,0,0,3.44-2.09v7.72Zm-8.55,0v-2.8a28.76,28.76,0,0,0,3.74-.85v2a.27.27,0,0,0,.54,0V288a27.55,27.55,0,0,0,3.72-1.52v5.35Zm-4,0v-2.44a29.4,29.4,0,0,0,3.44-.27v2.71Zm-.55-2.42v2.42h-3.75v-2.67a27.24,27.24,0,0,0,3.67.25Zm-8,2.42v-3.56a29.37,29.37,0,0,0,3.67.81v2.75Zm-8.36,0v-7.64a29.56,29.56,0,0,0,3.6,2.16V290a.27.27,0,1,0,.54,0v-3.38a27.78,27.78,0,0,0,3.67,1.46v3.74Zm-4,0V280.94a35.55,35.55,0,0,0,3.49,2.9v8Zm-.54-11.44v11.44h-3.77V279.6a.27.27,0,1,0-.54,0v12.25h-1.86V272.59A39.3,39.3,0,0,0,183.31,280.41Zm-7.24-11.57a.27.27,0,0,0,.27-.27v-.24h.26v23.52H176v-2.38a2.44,2.44,0,0,0-2.39-2.31,2.27,2.27,0,0,0-2.09,2.51v2.18h-.63V268.33l0,.24a.27.27,0,0,0,.27.27Zm-4,23v-2.19c0-.08,0-1.9,1.57-2s1.82,1.75,1.83,1.79v2.36Zm-1.72,0h-1.22V274.42c.41-.6.82-1.24,1.22-1.9Zm-6.21-11.43v7.74a.28.28,0,0,0,.55,0v-8.29a40.11,40.11,0,0,0,3.89-4.66v16.64h-8.09v-8.28A36.77,36.77,0,0,0,164.09,280.42Zm-7.63,11.43v-5.7A33.32,33.32,0,0,0,159.9,284v7.88Zm-4.86,0v-3.63a23,23,0,0,0,4.31-1.78v5.41Zm19.88,11.84h-.63V295h.63v8.7Zm3.94-4.95L173.9,300,172,298.49V298l1.79-1.34,1.61,1.28Zm-3.4-1.38v-2.08l1.35,1.07Zm0,1.83,1.45,1.14L172,301.5Zm3.4.26v1.72l-1.08-.85Zm0-2.17-1.16-.92,1.16-.86Zm-1.6-1.27-1.29-1h2.66Zm-1.8,6.25v-.05l1.89-1.54,1.51,1.2v.39Zm4.58,1.43H176v-8.6l.14-.1h.5Zm55.76,0h-.62V295h.62v8.7Zm3.95-6.41-1.16-.92,1.16-.86Zm0,1.46L234.8,300l-1.89-1.49V298l1.79-1.34,1.61,1.28Zm-3.4-1.38v-2.08l1.35,1.07Zm0,1.82,1.45,1.15-1.45,1.18Zm3.4.27v1.72l-1.08-.85Zm-1.6-3.44-1.29-1h2.66Zm-1.8,6.25v-.05l1.89-1.54,1.51,1.2v.39Zm4.57,1.43h-.62v-8.6l.13-.1h.49Zm19-9.24H151.6v-.76h68.73a.27.27,0,1,0,0-.54H151.6v-.75H256.52Z" transform="translate(-0.75 -179.26)"/><path class="cls-1" d="M171.75,286.28h3.94A.28.28,0,0,0,176,286v-2.33a2.4,2.4,0,0,0-2.39-2.31,2.26,2.26,0,0,0-2.09,2.51V286A.27.27,0,0,0,171.75,286.28Zm1.84-4.37c1.61-.08,1.82,1.75,1.83,1.79v2H172v-1.87C172,283.79,172,282,173.59,281.91Z" transform="translate(-0.75 -179.26)"/><path class="cls-1" d="M171.75,280.45h3.94a.28.28,0,0,0,.28-.27v-2.34a2.39,2.39,0,0,0-2.39-2.3,2.25,2.25,0,0,0-2.09,2.5v2.14A.27.27,0,0,0,171.75,280.45Zm1.84-4.37c1.61-.06,1.82,1.75,1.83,1.79v2H172V278C172,278,172,276.13,173.59,276.08Z" transform="translate(-0.75 -179.26)"/><path class="cls-1" d="M171.75,274.62h3.94a.28.28,0,0,0,.28-.27V272a2.41,2.41,0,0,0-2.39-2.31,2.26,2.26,0,0,0-2.09,2.51v2.14A.27.27,0,0,0,171.75,274.62Zm1.84-4.37c1.61-.06,1.82,1.74,1.83,1.79v2H172v-1.86C172,272.13,172,270.3,173.59,270.25Z" transform="translate(-0.75 -179.26)"/><path class="cls-1" d="M232.64,286.28h3.94a.28.28,0,0,0,.28-.27v-2.33a2.41,2.41,0,0,0-2.39-2.31,2.26,2.26,0,0,0-2.09,2.51V286A.27.27,0,0,0,232.64,286.28Zm1.84-4.37h.07c1.54,0,1.75,1.75,1.76,1.79v2h-3.4v-1.87C232.91,283.79,232.89,282,234.48,281.91Z" transform="translate(-0.75 -179.26)"/><path class="cls-1" d="M232.64,280.45h3.94a.28.28,0,0,0,.28-.27v-2.34a2.41,2.41,0,0,0-2.39-2.3,2.25,2.25,0,0,0-2.09,2.5v2.14A.27.27,0,0,0,232.64,280.45Zm1.84-4.37h.07c1.54,0,1.75,1.75,1.76,1.79v2h-3.4V278C232.91,278,232.89,276.13,234.48,276.08Z" transform="translate(-0.75 -179.26)"/><path class="cls-1" d="M232.64,274.62h3.94a.28.28,0,0,0,.28-.27V272a2.42,2.42,0,0,0-2.39-2.31,2.26,2.26,0,0,0-2.09,2.51v2.14A.27.27,0,0,0,232.64,274.62Zm1.84-4.37h.07c1.54,0,1.75,1.74,1.76,1.79v2h-3.4v-1.86C232.91,272.13,232.88,270.3,234.48,270.25Z" transform="translate(-0.75 -179.26)"/><path class="cls-1" d="M164.36,290.34a.27.27,0,0,0,.28-.27v-.24a.28.28,0,1,0-.55,0v.24A.27.27,0,0,0,164.36,290.34Z" transform="translate(-0.75 -179.26)"/><path class="cls-1" d="M179.27,278.66a.27.27,0,0,0,.27-.27v-.88a.27.27,0,1,0-.54,0v.88A.27.27,0,0,0,179.27,278.66Z" transform="translate(-0.75 -179.26)"/><path class="cls-1" d="M191.75,290.76a.28.28,0,0,0-.27.28v.42a.27.27,0,1,0,.54,0V291A.28.28,0,0,0,191.75,290.76Z" transform="translate(-0.75 -179.26)"/><path class="cls-1" d="M212.86,290.87a.27.27,0,0,0-.3.05.32.32,0,0,0-.08.2.3.3,0,0,0,0,.1.28.28,0,0,0,.06.09.27.27,0,0,0,.19.08.24.24,0,0,0,.19-.08.31.31,0,0,0,.07-.09.31.31,0,0,0,0-.1.32.32,0,0,0-.08-.2Z" transform="translate(-0.75 -179.26)"/><path class="cls-1" d="M226.31,293.15h-.59a.27.27,0,1,0,0,.54h.59a.27.27,0,1,0,0-.54Z" transform="translate(-0.75 -179.26)"/><path class="cls-1" d="M225.19,282.71a.27.27,0,0,0,.28-.27v-.36a.28.28,0,0,0-.55,0v.36A.27.27,0,0,0,225.19,282.71Z" transform="translate(-0.75 -179.26)"/><path class="cls-1" d="M217,285.14a.28.28,0,0,0,.13,0,28.91,28.91,0,0,0,9.93-8.53.27.27,0,0,0-.06-.38.28.28,0,0,0-.38.07,28.48,28.48,0,0,1-9.74,8.36.27.27,0,0,0-.12.37A.28.28,0,0,0,217,285.14Z" transform="translate(-0.75 -179.26)"/><path class="cls-1" d="M215.28,286h.1l.31-.14a.27.27,0,0,0,.14-.36.28.28,0,0,0-.36-.14l-.29.13a.26.26,0,0,0-.15.35A.26.26,0,0,0,215.28,286Z" transform="translate(-0.75 -179.26)"/><path class="cls-1" d="M138.12,303.88l-19.24-25.45a.27.27,0,0,0-.44,0l-12.3,16.27L90.26,272a.28.28,0,0,0-.45,0L67.52,303.89a.27.27,0,0,0,.23.43H137.9a.29.29,0,0,0,.25-.15A.3.3,0,0,0,138.12,303.88Zm-25.65-.11-.47-.66-.85-1.23h0l-.79-1.13a.28.28,0,0,0-.38-.07.27.27,0,0,0-.07.38l1.79,2.57.1.14H68.27l1.81-2.59H92.19a.27.27,0,0,0,.27-.27.28.28,0,0,0-.27-.28H70.46L72.27,298H98.65a.27.27,0,1,0,0-.54h-26l2-2.86H88.78a.28.28,0,0,0,.27-.28.27.27,0,0,0-.27-.27H75l2.07-3h17a.28.28,0,0,0,.27-.28.27.27,0,0,0-.27-.27H77.47L80,287H90a.28.28,0,0,0,.28-.27.29.29,0,0,0-.28-.28H80.35l1.77-2.54h5.45a.27.27,0,1,0,0-.54H82.5l1.93-2.77h7a.27.27,0,1,0,0-.54H84.81l1.5-2.15H90a.27.27,0,1,0,0-.54H86.69L90,272.58l17.69,25.34a.27.27,0,0,0,.38.07.28.28,0,0,0,.07-.38l-1.7-2.44L118.66,279l2.82,3.73h-3.85a.28.28,0,0,0,0,.55h4.26l2,2.58h-9a.27.27,0,1,0,0,.54h9.46l1.81,2.39H115.64a.28.28,0,0,0-.27.28.27.27,0,0,0,.27.27h10.83l1.6,2.11H113.85a.27.27,0,1,0,0,.54h14.63l1.56,2.06H119a.27.27,0,0,0-.27.27.28.28,0,0,0,.27.28h11.5l2.16,2.86H114.79a.27.27,0,1,0,0,.54H133l2,2.59H118a.28.28,0,0,0-.27.28.27.27,0,0,0,.27.27h17.42l2,2.59Z" transform="translate(-0.75 -179.26)"/><path class="cls-1" d="M108.79,298.5a.27.27,0,0,0-.38-.06.28.28,0,0,0-.07.38l.17.24a.28.28,0,0,0,.23.12.27.27,0,0,0,.15-.05.27.27,0,0,0,.07-.38Z" transform="translate(-0.75 -179.26)"/><path class="cls-1" d="M89.18,283.37h-.4a.27.27,0,0,0,0,.54h.4a.27.27,0,1,0,0-.54Z" transform="translate(-0.75 -179.26)"/><path class="cls-1" d="M101.69,297.5h-.44a.27.27,0,0,0,0,.54h.44a.27.27,0,1,0,0-.54Z" transform="translate(-0.75 -179.26)"/><path class="cls-1" d="M111.79,291.49h-.51a.27.27,0,1,0,0,.54h.51a.27.27,0,0,0,0-.54Z" transform="translate(-0.75 -179.26)"/><path class="cls-1" d="M117.19,300.66a.26.26,0,0,0-.21,0l-.08,0a.27.27,0,0,0-.09.2.19.19,0,0,0,0,.1.18.18,0,0,0,.06.09.24.24,0,0,0,.08.06l.11,0,.1,0,.09-.06a.28.28,0,0,0,.06-.09.36.36,0,0,0,0-.1.3.3,0,0,0-.08-.2Z" transform="translate(-0.75 -179.26)"/><path class="cls-1" d="M89.93,294.11a.28.28,0,0,0-.29.06.24.24,0,0,0-.08.19.22.22,0,0,0,0,.11.35.35,0,0,0,.14.14.23.23,0,0,0,.11,0,.17.17,0,0,0,.1,0,.18.18,0,0,0,.09-.06.26.26,0,0,0,.08-.19.27.27,0,0,0-.08-.19Z" transform="translate(-0.75 -179.26)"/><path class="cls-1" d="M106.74,292.89a.28.28,0,0,0,.22-.1l5.05-6.62a.27.27,0,0,0-.43-.33l-5.06,6.61a.28.28,0,0,0,.06.39A.28.28,0,0,0,106.74,292.89Z" transform="translate(-0.75 -179.26)"/><path class="cls-1" d="M106.13,293.69a.28.28,0,0,0,.22-.1l.13-.18a.28.28,0,0,0,0-.39.27.27,0,0,0-.38.06l-.14.18a.27.27,0,0,0,0,.38A.26.26,0,0,0,106.13,293.69Z" transform="translate(-0.75 -179.26)"/><path class="cls-1" d="M271.55,243.51a.26.26,0,0,0,.27-.26l0-.24a.28.28,0,0,0-.26-.29.27.27,0,0,0-.29.26v.24a.28.28,0,0,0,.26.29Z" transform="translate(-0.75 -179.26)"/><path class="cls-1" d="M277.14,271.2h.05a.25.25,0,0,0,.25-.27.3.3,0,0,0-.3-.27.27.27,0,0,0,0,.54Z" transform="translate(-0.75 -179.26)"/><path class="cls-1" d="M295.91,302h-1.47l-8.09-13h.53a.27.27,0,0,0,.27-.27v-2.5a.27.27,0,0,0-.27-.27h-1.25v-2.22a.27.27,0,0,0-.27-.27h-2.55l-3.41-10.68h1.49a.27.27,0,0,0,.27-.27v-1.62a.27.27,0,0,0-.27-.27h-.56v-1.35a.27.27,0,0,0-.27-.27h-1.31l-2-15.83h.21a.27.27,0,0,0,.27-.27v-1.38a.27.27,0,0,0-.27-.27h-.18l-1.05-17.15v-.08l-.1-1.55H276a.27.27,0,0,0,.27-.27v-4.36a.27.27,0,0,0-.27-.27h-.14l.79-.79a.29.29,0,0,0,0-.39l-2.6-2.6v-7.07a.28.28,0,0,0-.27-.28.29.29,0,0,0-.28.28v7.07l-2.6,2.6a.29.29,0,0,0,0,.39l.79.79h-.59a.27.27,0,0,0-.28.27v4.36a.27.27,0,0,0,.28.27h.7l-.26,5.05a.27.27,0,0,0,0,.12.31.31,0,0,0,0,.08l-.2,3.92h0s0,0,0,.07a.06.06,0,0,0,0,0s0,0,0,0l0,0h0l1.9,1.93-1.63,1.63,0-.57a.28.28,0,0,0-.26-.29.26.26,0,0,0-.28.26l-.07,1.29h0l-.25,4.88v.27h-.32a.27.27,0,0,0-.27.27v1.38a.27.27,0,0,0,.27.27H271l-.66,4.87h0l-1.49,11h-1.6a.27.27,0,0,0-.27.27v1.35h-.44a.27.27,0,0,0-.27.27v1.62a.27.27,0,0,0,.27.27H268l-3.41,10.68H262a.28.28,0,0,0-.28.27V286h-1a.27.27,0,0,0-.27.27v2.5a.27.27,0,0,0,.27.27h1.09l-8.09,13h-1.47a.27.27,0,0,0-.27.27V304a.27.27,0,0,0,.27.27h9.15a.28.28,0,0,0,.28-.27v-1.66c0-.21.72-9.47,12.12-9.86a12.1,12.1,0,0,1,8.59,2.71.27.27,0,0,0,.07.08h0a13.07,13.07,0,0,1,4,7.08V304a.28.28,0,0,0,.28.27h9.15a.27.27,0,0,0,.27-.27V302.3A.27.27,0,0,0,295.91,302Zm-15.43-8.76.41-.9a19.25,19.25,0,0,1,2.26,1.33l0,.06-.61.88A10.79,10.79,0,0,0,280.48,293.27Zm-2.84-1,.37-1a16,16,0,0,1,2.39.89l-.41.9A11.38,11.38,0,0,0,277.64,292.24Zm-9.1.64-.45-.95a15.69,15.69,0,0,1,2.29-.78l.38,1.1A13.49,13.49,0,0,0,268.54,292.88Zm-2.45,1.22-.51-.81a15.16,15.16,0,0,1,2-1.13l.44.91A12.63,12.63,0,0,0,266.09,294.1ZM261.17,302h-.7l1.29-2.36A11.08,11.08,0,0,0,261.17,302Zm-5.24-2.5,1.62,1.23-3,1Zm2.8-4.5,1,2-3.18,1.46Zm2.3-3.69,1,1.74-2.62.89ZM288.79,294l-2.09-.7.94-1.14Zm2.82,4.53L288.42,297l1-2Zm2.05,3.3-3-1,1.62-1.24ZM290,300.55l-2.86-1,1-2,3.62,1.66Zm-2.08-3.73-3-1.39,1.42-1.72,2.71.92Zm-6-6.51,1.66.47-.89.94Zm2.25.64,3,.86-1.05,1.27-3-1Zm.42-.45,1.22-1.3,1.26,2Zm-.59-.17-2.45-.7-.33-.6h4Zm-3.4-1.3.53,1h0l0,.07H267l.57-1Zm-12.89,2.48a.2.2,0,0,0-.11,0,.18.18,0,0,0-.07,0,15.92,15.92,0,0,0-1.92,1l1.1-2h3.58A16.8,16.8,0,0,0,267.71,291.51Zm-3.34-1,1.93-.32-.82,1.5Zm.68,1.52-2.51.85-1.07-1.9,2.25-.37Zm1.58-2.44-2.71.44-1-1h4Zm-3.36.55-1.69.27.78-1.24Zm-1,3.4,1,1.84-3.08,1.41-1.11-2.19Zm-4.12,7-1.79-1.36,3.62-1.66,1,2Zm2.67-.34-.92,1.68-1.23-.94Zm-2.77,1,1.13.87h-3.68Zm3.35-2-.93-1.84,2.59-1.18ZM263.7,295l-.89-1.58,2.16-.73Zm17.77-4.36,1.13,2.08a18.85,18.85,0,0,0-1.69-.92l0,0h0a16.94,16.94,0,0,0-3-1.12Zm1.73,2.05,2.57.87-1.26,1.52Zm4.48,4.64-.93,1.84-1.65-3Zm1.81,3.65-1.24.94-.92-1.68Zm.61.21,2.55.87H289Zm-24.2-19.91,1.4,1-2,1Zm.9-2.82,1.36,1.1-2,.8Zm.8-2.5,1.06.95-1.56.63Zm2.48,5.6-.42,1.78-1.3-.95Zm-2.22.47-1.55-1.13,2.34-.95L270,281Zm2.45-1.45-1.09-.87,1.43-.58Zm-1.57-1.26-1.55-1.24,1.92-.76,1.42,1.27Zm2.13-1.15-1.2-1.08,1.6-.64Zm-1.65-1.49L268,275.54l1.89-1,1.24,1.34Zm2.27-1.15-1.12-1.2,1.59-.83Zm-1.5-1.62-1-1.06h3Zm-.5.26-1.58.82.6-1.89Zm-1.69,8.49,1.2.87h-3Zm4.88-9.81h2.06l2.5,10.68h-7.06Zm7.65,4.69-1.63-.66,1.09-1Zm.9,2.82-2-.8,1.36-1.1Zm.93,2.92-2-1,1.4-1Zm-6.23-7.75-.47-2,1.59.83Zm1.62-.94,1.8.93-1.21,1.14-1.83-.73Zm.16,2.48-1.16,1.09-.4-1.71Zm.55.23,2,.78-1.55,1.24-1.79-.73Zm-.06,2.41-1.09.87-.34-1.45Zm-.75,1.3,1.32-1.06,2.34.95L279.56,282Zm1.61,1.38-1.3.95-.42-1.78Zm-1.13-8.22,1-1.07.61,1.9Zm-.5-.26-2.05-1.06h3Zm2.19,8.75,1.8.87h-3Zm-9.95-15.55,1,.86-1.18.8Zm.36-2.61.78.78-1,.7Zm.41-3,.84,1-1.09.82Zm.72-5.32.66.66-.84.67Zm5.54,1.26-.91-.65.74-.72Zm.39,3-1-.84.74-.91Zm.36,2.78-1-.7.79-.82Zm.35,2.78-1.06-.75.86-.86Zm.36,2.77-1.15-.8.94-.84Zm-5.7-1.38-.11,1.39-.84-.74Zm-1.37.27-1.18-1.06,1.3-.92,1.14,1.13Zm1.46-1.42-.89-.89,1-.73Zm-1.29-1.28-1-1,1.39-1.06,1,1.11Zm1.52-1.57-.71-.82.82-.62Zm-1.06-1.23-1.08-1.26,1.11-.94,1.09,1.35ZM273,260.6l-.84-1,1-.83Zm-1.18-1.45-.81-1,1.19-.94.87.88Zm1.42-1.66-.61-.62.71-.57Zm.77-2.42v-1.55l.82.7Zm1.23-.5,1.08.91-1,1-1.12-.8Zm-1.79.32V255l-.66-.78.67-.64Zm-.17.76-1,.82-.88-.9,1-1Zm1.67,1.18-.71.69-.12-1.28Zm.45.32,1.26.89-1,1.16-1.27-1.1Zm0,2.47-.83,1-.17-1.86Zm.41.36,1.28,1.1-1,1.08-1.29-.91Zm-.15,2.58-.82.85-.15-1.54Zm.45.31,1.31.93-1.09,1.09L275,264Zm-.17,2.41-.85.85-.14-1.55Zm-.64,1.42,1.09-1.1,1.37,1-1.16,1Zm.88,1.28-.84.76-.14-1.44Zm-.53-13.81.59-.63.17,1.27Zm-.42-.35-.72-.61h1.3Zm-2.77,0-.5-.59h1.13Zm-.39.38-.69.65.17-1.25Zm-.63,5.32-.78.67.19-1.4Zm-.35,8.81.81.73H270Zm2-1.47h0l.43-5.44,0,0s0-.06,0-.08l.26-3.22.3,3.29h0l.26,2.7h0l.47,5h-1.91Zm3.55,1.47,1,.73h-1.85ZM271.53,251l2.19-2.19,2.33,2.19-.27.26h-4Zm.73-16.29,1.06,1L272.15,237Zm1.46,4.46-1.52-1.52,1.52-1.52,1.52,1.52Zm.41-3.41,1.05-1,.14,2.24Zm-.41-.36-1.31-1.32,1.31-1.32,1.32,1.32Zm-.39,4.15L271.94,241l.14-2.67Zm2.07-1.29.16,2.71-1.44-1.43Zm.44,7.17-1.73-1.65,1.53-1.51Zm.29,4.91-2-1.91,1.8-1.72Zm-1-17-.89-.89h.84Zm-3.59-6.77,2.3-2.3,2.29,2.3-1,1h-2.63Zm-.11,1.52h4.36V232H271.4Zm1.84,4.36-.91.91.05-.91Zm.49,7.44,1.76,1.74-1.76,1.74L272,241.69Zm0,4.24,2,1.95-2,1.94-1.93-1.94Zm-.39,4.26-1.87,1.88.18-3.57Zm-2.51,3.39h5.83v.82h-5.83Zm-4,19.36h9.54a.27.27,0,0,0,0-.54h-8.82v-1.08h12.25v1.08h-1.43a.27.27,0,1,0,0,.54h2.26v1.07h-13.8ZM262.3,284h22.78V286H262.3Zm-1.3,2.5h25.6V287H272.36a.27.27,0,0,0-.27.27.28.28,0,0,0,.27.28H286.6v1H261Zm.14,17.16h-8.61v-1.12h8.61Zm2.33-7.16,1.55-2.85.12-.09.5.81A10.72,10.72,0,0,0,263.47,296.54Zm10.32-4.63a20.83,20.83,0,0,0-2.49.24l-.38-1.13a14.7,14.7,0,0,1,3-.34v1.23A.48.48,0,0,0,273.79,291.91Zm.66,0v-1.21a15.16,15.16,0,0,1,3,.41l-.38,1A15.62,15.62,0,0,0,274.45,291.9ZM283,295l.5-.71L287.7,302H287A14.06,14.06,0,0,0,283,295Zm12.66,8.7H287v-1.12h8.61Z" transform="translate(-0.75 -179.26)"/><path class="cls-1" d="M276.81,242.72a.27.27,0,0,0-.25.29v.24a.28.28,0,0,0,.28.26h0a.28.28,0,0,0,.26-.29l0-.24A.27.27,0,0,0,276.81,242.72Z" transform="translate(-0.75 -179.26)"/><path class="cls-1" d="M276.19,233.05a.28.28,0,0,0-.26.29l.57,8.71a.27.27,0,0,0,.27.25h0A.27.27,0,0,0,277,242l-.56-8.71A.28.28,0,0,0,276.19,233.05Z" transform="translate(-0.75 -179.26)"/><path class="cls-1" d="M270.92,287.44a.26.26,0,0,0,.09.05.18.18,0,0,0,.2,0l.1-.05.06-.09a.37.37,0,0,0,0-.11.26.26,0,0,0-.07-.19.29.29,0,0,0-.39,0,.27.27,0,0,0-.08.19.2.2,0,0,0,0,.11A.47.47,0,0,0,270.92,287.44Z" transform="translate(-0.75 -179.26)"/><path class="cls-1" d="M370.36,274.67h-3.55v-7.19h1a.28.28,0,0,0,.28-.27v-3a.28.28,0,0,0-.28-.27h-.28c1.62-1.46,3.33-5.54,3.12-8.77a2.48,2.48,0,0,0,0-.27.66.66,0,0,0,0-.14s0,0,0,0c-.47-3.39-3.69-7.06-5.62-9a15.62,15.62,0,0,1-3.54-5.87V234.6h1.94a.27.27,0,1,0,0-.54h-1.94V232a.27.27,0,1,0-.54,0v2.11h-1.94a.27.27,0,1,0,0,.54h1.94v5.27c-.35,3.39-2.51,5.43-4.79,7.58-2.09,2-4.26,4-4.8,7.18a9.3,9.3,0,0,0,.75,5.68v.05a.27.27,0,0,0,.14.23,10.56,10.56,0,0,0,2.75,3.34h-.42a.28.28,0,0,0-.28.27v3a.28.28,0,0,0,.28.27h1v7.19h-3.55a.28.28,0,0,0-.28.27v9.28h-3.25v-8.9h1.32a.27.27,0,0,0,.27-.27v-3a.27.27,0,0,0-.27-.27h-1.46a10.71,10.71,0,0,0,2.47-7.1l0-.22a.49.49,0,0,0,0-.12,0,0,0,0,0,0,0c-.38-2.78-3-5.78-4.59-7.36a12.68,12.68,0,0,1-2.87-4.76V248h1.53a.27.27,0,1,0,0-.54h-1.53v-1.67a.27.27,0,1,0-.54,0v1.67h-1.54a.27.27,0,0,0-.24.15l-3.69-10s0-.06-.07-.09v-2.36c.53-.42,2.73-2.36,2.26-4.82s-4.2-7.62-4.68-8.27v-5.19h1.94a.28.28,0,1,0,0-.55h-1.94v-2.11a.27.27,0,1,0-.54,0v2.11h-1.95a.28.28,0,0,0,0,.55h1.95v5.22c-.26.52-.61,1.12-1,1.81a40.16,40.16,0,0,0-2.91,5.67,4.25,4.25,0,0,0,2.21,5.62v2.39a0,0,0,0,1,0,0l-4.38,11a12.79,12.79,0,0,1-2.58-4.46v-4.2H327a.28.28,0,0,0,.27-.28.27.27,0,0,0-.27-.27h-1.53v-1.67a.28.28,0,0,0-.28-.27.27.27,0,0,0-.27.27v1.67h-1.53a.27.27,0,0,0-.27.27.28.28,0,0,0,.27.28h1.53v4.24c-.28,2.74-2,4.39-3.88,6.14s-3.48,3.29-3.93,5.88a8.23,8.23,0,0,0-.11,1.61.14.14,0,0,0,0,.09,7.53,7.53,0,0,0,.72,2.95v0a.24.24,0,0,0,.12.21,8.68,8.68,0,0,0,2.14,2.64h-.38a.27.27,0,0,0-.27.27v9.55H318a.27.27,0,0,0-.27.27v3a.27.27,0,0,0,.27.27h1.32v8.9h-2.58v-1.44a.28.28,0,0,0-.28-.27h-3.55V277h1a.28.28,0,0,0,.28-.27v-3a.28.28,0,0,0-.28-.27h-.28c1.62-1.46,3.33-5.54,3.12-8.77a2.48,2.48,0,0,0,0-.27.66.66,0,0,0,0-.14s0,0,0,0c-.47-3.39-3.68-7.06-5.62-9a15.62,15.62,0,0,1-3.54-5.87v-5.24h1.94a.27.27,0,1,0,0-.54h-1.94V241.5a.27.27,0,1,0-.54,0v2.11h-1.94a.27.27,0,1,0,0,.54H307v5.27c-.35,3.39-2.51,5.43-4.79,7.58-2.09,2-4.26,4-4.8,7.18a9.3,9.3,0,0,0,.75,5.68v.05a.27.27,0,0,0,.14.23,10.56,10.56,0,0,0,2.75,3.34h-.42a.28.28,0,0,0-.28.27v3a.28.28,0,0,0,.28.27h1v7.19h-3.55a.27.27,0,0,0-.27.27V304a.28.28,0,0,0,.27.28h72.29a.28.28,0,0,0,.27-.28v-29.1A.27.27,0,0,0,370.36,274.67Zm-3.85-10.74h-2.05a4.42,4.42,0,0,1,2.2-3.16,7.72,7.72,0,0,0,3.29-3.28C369.4,260.67,367.55,263.66,366.51,263.93Zm-5.87,0c-.1-.65-.19-2.82,2.53-4.9,3.19-2.44,4.81-5.54,4.73-9a11.63,11.63,0,0,1,2.16,4.87c.18,1.78-1.57,4.38-3.64,5.39a5,5,0,0,0-2.52,3.65Zm-5.2-.29c-.2-.39-1.29-3.1,3.67-6.57,5.22-3.65,6-8.31,5.88-10.54a28.51,28.51,0,0,1,2.31,2.67c.39,3.68-1.11,6.84-4.46,9.4-2.83,2.16-2.86,4.47-2.75,5.33h-4.25Zm-3.61-8.92c.51-3,2.51-4.87,4.63-6.87s4.13-3.89,4.79-6.89q.25.61.54,1.17c-.37,5.56-2.43,9.64-5.94,11.81a7.9,7.9,0,0,0-3.68,5.27A8.82,8.82,0,0,1,351.83,254.72Zm2.06,7.45s0-.05,0-.07-.42-3.55,4.2-6.55a12.56,12.56,0,0,0,4.1-4,.27.27,0,0,0-.47-.27,12.08,12.08,0,0,1-3.93,3.86c-3.71,2.4-4.36,5.11-4.45,6.37a10.75,10.75,0,0,1-.75-1.26,7.45,7.45,0,0,1,3.54-5.8c3.49-2.16,5.6-6.09,6.13-11.4a15.62,15.62,0,0,0,2.09,2.86c.47,1.95-.25,7-5.55,10.76-3.92,2.74-4.29,5.12-4.11,6.38C354.44,262.77,354.17,262.49,353.89,262.17Zm.89,2.31h12.74v1.13H361a.28.28,0,1,0,0,.55h6.54v.78H354.78Zm1.25,3h10.24v7.19h-.74v-6a.27.27,0,1,0-.54,0v6h-7.81v-3.59a.27.27,0,1,0-.54,0v3.59H356Zm-.27,7.73h14.33v.63h-17a.27.27,0,1,0,0,.54h17v3.12H352.21v-1.35h8.94a.27.27,0,0,0,.27-.27.28.28,0,0,0-.27-.28h-8.94v-2.39Zm-7.89,9H347v-6.85a.28.28,0,0,0-.55,0v6.85h-7.36V280a.28.28,0,1,0-.55,0v4.25h-.87v-8.9h10.23Zm1.59-9.44H336.05v-.42h6.25a.28.28,0,0,0,0-.55h-6.25v-.5h8.39a.27.27,0,1,0,0-.54h-8.39v-.46h13.41ZM343,253.49a.29.29,0,0,0,0-.09s0-.09.05-.14c.12.29.24.56.37.81-.31,4.5-2,7.81-4.82,9.57a6.45,6.45,0,0,0-3,4.15,7.36,7.36,0,0,1-.22-3.47c.42-2.4,2-3.94,3.77-5.57C340.75,257.27,342.36,255.73,343,253.49ZM338.9,264.1c2.82-1.75,4.54-4.9,5-9.17a12.5,12.5,0,0,0,1.62,2.19c.38,1.59-.22,5.71-4.5,8.7-3.1,2.17-3.49,4.06-3.39,5.13a7.75,7.75,0,0,1-1.6-2.15A6,6,0,0,1,338.9,264.1Zm8.33,4.7a4.09,4.09,0,0,0-2.07,3h-2.57c-.08-.57-.09-2.27,2.05-3.91a8.9,8.9,0,0,0,3.87-7.21,9.26,9.26,0,0,1,1.66,3.81C350.31,265.9,348.9,268,347.23,268.8Zm-2.92-1.37C342,269.17,342,271,342,271.77h-1.73A3.36,3.36,0,0,1,342,268a12,12,0,0,0,2.2-1.58.27.27,0,0,0,0-.39.27.27,0,0,0-.38,0,11.73,11.73,0,0,1-2.1,1.51,3.91,3.91,0,0,0-2,4.26h-1.11l-.3-.21c-.14-.3-1-2.5,3-5.29,4.17-2.92,4.9-6.63,4.81-8.51a24.41,24.41,0,0,1,1.78,2.07C348.23,262.8,347,265.36,344.31,267.43Zm3,4.34h-1.6a3.51,3.51,0,0,1,1.75-2.48,6.34,6.34,0,0,0,2.55-2.43C349.52,269.31,348.13,271.55,347.32,271.77ZM341.15,248h1.54v4.24a.68.68,0,0,0,0,.14l-1.62-4.4ZM333,235.25h3.6v2.13H333Zm-2.26-5.52a39,39,0,0,1,2.88-5.59c.33-.55.63-1,.87-1.51.92,1.28,4,5.63,4.37,7.76s-1.67,4-2.08,4.32h-4A3.73,3.73,0,0,1,330.75,229.73Zm2.14,8.2h3.89l5.68,15.44c-.59,2.08-2.08,3.5-3.66,5s-3.48,3.28-3.92,5.87a7.55,7.55,0,0,0,.61,4.65v0a.27.27,0,0,0,.12.22,8.78,8.78,0,0,0,2.14,2.64h-2a.27.27,0,0,0-.28.27V273a.19.19,0,0,0,0,.08.22.22,0,0,0,0,.08v1.93a.27.27,0,0,0,.28.27h1.31v8.9h-3.55a.27.27,0,0,0-.27.27v1.44h-2.6V277H332a.27.27,0,0,0,.27-.27v-3a.27.27,0,0,0-.27-.27h-1.32v-9.55a.27.27,0,0,0-.17-.25,10.6,10.6,0,0,0,2.49-7.12c0-.07,0-.14,0-.21a.57.57,0,0,1,0-.13s0,0,0,0c-.29-2.07-1.82-4.26-3.24-5.9h0c-.43-.5-.85-.94-1.22-1.32Zm-8.05,25.73c-.07-.57-.09-2.26,2.05-3.9a8.92,8.92,0,0,0,3.88-7.21,9.19,9.19,0,0,1,1.65,3.8c.14,1.44-1.26,3.53-2.93,4.34a4.11,4.11,0,0,0-2.08,3Zm-4.24-.21c-.17-.35-1-2.51,3-5.28,4.18-2.92,4.9-6.63,4.82-8.51.29.31.57.61.84.92a10.49,10.49,0,0,1-2.83,6.74.28.28,0,0,0,0,.39.3.3,0,0,0,.2.08.29.29,0,0,0,.19-.08,10.68,10.68,0,0,0,2.95-6.53l.44.55c.3,3-.91,5.53-3.62,7.6-2.27,1.73-2.34,3.58-2.26,4.33h-3.4Zm9.13-2.27a6.38,6.38,0,0,0,2.55-2.42c-.5,2.45-1.9,4.68-2.71,4.9H328A3.6,3.6,0,0,1,329.73,261.18Zm-12.17-3.36a11.71,11.71,0,0,1,2.24-3.2.27.27,0,0,0,0-.39.27.27,0,0,0-.38,0,11.09,11.09,0,0,0-1.8,2.3c0-.1,0-.2,0-.31.41-2.41,2-4,3.76-5.57s3.3-3.12,3.88-5.49c.12.28.25.55.38.81-.31,4.5-2,7.8-4.82,9.56a6.49,6.49,0,0,0-3,4.13A7,7,0,0,1,317.56,257.82Zm.73,2.84a6,6,0,0,1,2.86-4.66c2.83-1.75,4.55-4.91,5-9.17a13.58,13.58,0,0,0,1.61,2.19c.38,1.59-.21,5.7-4.5,8.7-3.07,2.15-3.48,4-3.38,5.11A8.19,8.19,0,0,1,318.29,260.66Zm1.6,3.55h10.24v9.27h-1.07v-6.84a.28.28,0,0,0-.28-.27.27.27,0,0,0-.27.27v6.84h-7.17v-3.05a.27.27,0,0,0-.54,0v3.05h-.91ZM318.3,274h13.41v2.47H318.3Zm1.59,3h10.24v8.9h-.81v-6.16a.27.27,0,0,0-.27-.27.28.28,0,0,0-.28.27v6.16H322V283a.28.28,0,1,0-.55,0v2.9h-.69v-5.3a.28.28,0,0,0-.28-.28.27.27,0,0,0-.27.28v5.3h-.32Zm-2.13,9.45v7.79a.27.27,0,1,0,.54,0v-7.79h11.13v4.43a.27.27,0,1,0,.54,0v-4.43h3.3v17.29h-.68V291.09a.28.28,0,0,0-.28-.27.27.27,0,0,0-.27.27v12.68h-1.37v-7a5.66,5.66,0,1,0-11.32,0v7h-2.58V286.48Zm-5.12-13h-2.05a4.48,4.48,0,0,1,2.2-3.16,7.72,7.72,0,0,0,3.29-3.28C315.53,270.22,313.69,273.21,312.64,273.48Zm-3.85,0a5,5,0,0,1,2.61-4.2.27.27,0,0,0,.1-.37.26.26,0,0,0-.37-.1,5.52,5.52,0,0,0-2.88,4.67h-1.48c-.1-.65-.19-2.82,2.54-4.9,3.18-2.44,4.8-5.54,4.72-9a11.5,11.5,0,0,1,2.16,4.87c.18,1.79-1.57,4.38-3.64,5.39a5,5,0,0,0-2.52,3.65Zm-7.22-.29c-.2-.39-1.29-3.1,3.67-6.57,5.22-3.65,6-8.31,5.88-10.55a29.91,29.91,0,0,1,2.31,2.68c.39,3.67-1.11,6.84-4.46,9.4-2.83,2.16-2.86,4.47-2.75,5.33H302ZM298,264.27c.51-3,2.51-4.87,4.64-6.87s4.12-3.89,4.78-6.89c.17.41.36.8.54,1.17-.37,5.56-2.42,9.64-5.94,11.81a7.9,7.9,0,0,0-3.68,5.27A8.82,8.82,0,0,1,298,264.27Zm.76,5.49a7.45,7.45,0,0,1,3.54-5.8c3.5-2.16,5.6-6.09,6.13-11.4a17.21,17.21,0,0,0,1,1.54,14.72,14.72,0,0,1-2.52,7.39.28.28,0,0,0,.06.38.25.25,0,0,0,.16.05.27.27,0,0,0,.22-.11,14.87,14.87,0,0,0,2.58-7.07,7.8,7.8,0,0,0,.58.67c.48,2-.25,7.06-5.55,10.77-3.92,2.74-4.29,5.12-4.11,6.38A10,10,0,0,1,298.72,269.76Zm2.19,6.36H306a.27.27,0,1,0,0-.54h-5.06V275h9.83a.29.29,0,0,0,.28-.28.28.28,0,0,0-.28-.27h-9.83V274h12.74v2.47H300.91Zm1.25.91H312.4v7.19h-1.25v-6a.28.28,0,0,0-.55,0v6h-7v-2.49a.27.27,0,0,0-.54,0v2.49h-.89Zm-3.82,7.73h1.74v8.55a.27.27,0,1,0,.54,0v-8.55h2v6.58a.27.27,0,1,0,.54,0v-6.58h2.27v9.64a.27.27,0,1,0,.54,0v-9.64h2.27v7.68a.27.27,0,0,0,.54,0v-7.68h2.47v3.16a.27.27,0,0,0,.54,0v-3.16h1.85v4.68a.27.27,0,0,0,.27.28.28.28,0,0,0,.28-.28v-4.68h2v1.36a.24.24,0,0,0,0,.08v17.57h-1.46c0-.13,0-.26,0-.39a7.13,7.13,0,1,0-14.25,0c0,.13,0,.26,0,.39h-2.19Zm2.73,19c0-.13,0-.26,0-.39a6.58,6.58,0,0,1,13.16,0c0,.13,0,.26,0,.39Zm18.82,0v-7a5.12,5.12,0,0,1,10.24,0v7Zm13.92-17.57v-1.44h1.82v10.77a.27.27,0,1,0,.54,0V284.76h1.46V293a.27.27,0,1,0,.54,0v-8.22h7.44v7.15a.28.28,0,0,0,.28.27.27.27,0,0,0,.27-.27v-7.15h1.71V290a.27.27,0,1,0,.54,0v-5.19h1.3V296a.28.28,0,0,0,.55,0V284.76h1.4v19h-1.8c0-.13,0-.26,0-.39a7.13,7.13,0,1,0-14.25,0c0,.13,0,.26,0,.39h-1.84Zm2.38,17.57c0-.13,0-.26,0-.39a6.58,6.58,0,0,1,13.16,0c0,.13,0,.26,0,.39Zm19.84,0v-6.36a5.12,5.12,0,1,1,10.24,0v6.36Zm14.06,0h-3.28v-6.36a5.66,5.66,0,0,0-11.32,0v6.36h-3.25V284.49a.27.27,0,0,0,0-.12V280h1.88v8.55a.27.27,0,0,0,.27.27.28.28,0,0,0,.28-.27V280h2v6.58a.27.27,0,0,0,.54,0V280h2.27v9.64a.27.27,0,0,0,.27.27.28.28,0,0,0,.28-.27V280h2.26v7.67a.28.28,0,0,0,.27.28.29.29,0,0,0,.28-.28V280h2.46v3.16a.27.27,0,0,0,.54,0V280h1.85v4.68a.29.29,0,0,0,.28.28.28.28,0,0,0,.27-.28V280h1.88Z" transform="translate(-0.75 -179.26)"/><path class="cls-1" d="M322.62,284.65h4.8a.27.27,0,0,0,.27-.27V282a2.68,2.68,0,1,0-5.35,0v2.4A.28.28,0,0,0,322.62,284.65Zm.27-2.67a2.13,2.13,0,0,1,4.26,0v2.13h-4.26Z" transform="translate(-0.75 -179.26)"/><path class="cls-1" d="M358.75,273.75h4.8a.27.27,0,0,0,.27-.27v-2.4a2.67,2.67,0,1,0-5.34,0v2.4A.27.27,0,0,0,358.75,273.75Zm.27-2.67a2.13,2.13,0,0,1,4.26,0v2.12H359Z" transform="translate(-0.75 -179.26)"/><path class="cls-1" d="M322.61,271.72h4.8a.28.28,0,0,0,.27-.28V269a2.68,2.68,0,0,0-5.35,0v2.4A.29.29,0,0,0,322.61,271.72Zm.27-2.68a2.13,2.13,0,1,1,4.26,0v2.13h-4.26Z" transform="translate(-0.75 -179.26)"/><path class="cls-1" d="M304.63,283.3h4.8a.27.27,0,0,0,.27-.27v-2.4a2.68,2.68,0,1,0-5.35,0V283A.28.28,0,0,0,304.63,283.3Zm.27-2.67a2.13,2.13,0,0,1,4.26,0v2.12H304.9Z" transform="translate(-0.75 -179.26)"/><path class="cls-1" d="M340.35,282.44h4.8a.28.28,0,0,0,.28-.27v-2.4a2.68,2.68,0,0,0-5.35,0v2.4A.27.27,0,0,0,340.35,282.44Zm.27-2.67a2.13,2.13,0,0,1,4.26,0v2.13h-4.26Z" transform="translate(-0.75 -179.26)"/><path class="cls-1" d="M300.62,294.76v-.09a.27.27,0,0,0-.54,0v.09a.27.27,0,0,0,.54,0Z" transform="translate(-0.75 -179.26)"/><path class="cls-1" d="M313.92,291.55a.28.28,0,0,0,.28-.27v-.37a.28.28,0,0,0-.28-.27.27.27,0,0,0-.27.27v.37A.27.27,0,0,0,313.92,291.55Z" transform="translate(-0.75 -179.26)"/><path class="cls-1" d="M354.36,289.68a.27.27,0,0,0-.27.27V290a.27.27,0,0,0,.27.27.28.28,0,0,0,.28-.27V290A.28.28,0,0,0,354.36,289.68Z" transform="translate(-0.75 -179.26)"/><path class="cls-1" d="M367.94,285.92a.28.28,0,0,0-.28.27v.37a.28.28,0,0,0,.28.27.27.27,0,0,0,.27-.27v-.37A.27.27,0,0,0,367.94,285.92Z" transform="translate(-0.75 -179.26)"/><path class="cls-1" d="M321,269.6l.1,0a.27.27,0,0,0,.19-.08.24.24,0,0,0,.08-.19.2.2,0,0,0,0-.11.24.24,0,0,0-.06-.09.3.3,0,0,0-.29-.06l-.09.06a.28.28,0,0,0-.08.2.27.27,0,0,0,.08.19Z" transform="translate(-0.75 -179.26)"/><path class="cls-1" d="M303.13,280.68a.27.27,0,0,0,.19.08.3.3,0,0,0,.2-.08.29.29,0,0,0,.07-.19.32.32,0,0,0-.07-.19.29.29,0,0,0-.39,0,.27.27,0,0,0-.08.19.3.3,0,0,0,0,.1A.15.15,0,0,0,303.13,280.68Z" transform="translate(-0.75 -179.26)"/><path class="cls-1" d="M346.3,272.77h-.41a.27.27,0,1,0,0,.54h.41a.27.27,0,1,0,0-.54Z" transform="translate(-0.75 -179.26)"/><path class="cls-1" d="M311.79,275h.33a.28.28,0,0,0,.27-.28.27.27,0,0,0-.27-.27h-.33a.27.27,0,0,0-.27.27A.28.28,0,0,0,311.79,275Z" transform="translate(-0.75 -179.26)"/><path class="cls-1" d="M360,266.14l.1,0a.27.27,0,0,0,.19-.08.24.24,0,0,0,.06-.09.18.18,0,0,0,0-.1.28.28,0,0,0-.08-.2.19.19,0,0,0-.09-.05.23.23,0,0,0-.2,0,.19.19,0,0,0-.09.05.18.18,0,0,0-.06.09.22.22,0,0,0,0,.11.24.24,0,0,0,.08.19Z" transform="translate(-0.75 -179.26)"/><path class="cls-1" d="M306.74,276a.27.27,0,0,0,.19.08.3.3,0,0,0,.2-.08.35.35,0,0,0,.06-.09.51.51,0,0,0,0-.2.35.35,0,0,0-.06-.09.27.27,0,0,0-.39,0,.2.2,0,0,0-.06.09.26.26,0,0,0,0,.2A.2.2,0,0,0,306.74,276Z" transform="translate(-0.75 -179.26)"/><path class="cls-1" d="M305.34,263.79a.27.27,0,0,0,.17-.06c.13-.1.25-.21.36-.31a.28.28,0,0,0,0-.39.27.27,0,0,0-.38,0l-.34.3a.26.26,0,0,0,0,.38A.28.28,0,0,0,305.34,263.79Z" transform="translate(-0.75 -179.26)"/><path class="cls-1" d="M320.81,253.78a.22.22,0,0,0,.13,0l.25-.14a.27.27,0,0,0-.24-.48l-.28.15a.28.28,0,0,0-.1.37A.27.27,0,0,0,320.81,253.78Z" transform="translate(-0.75 -179.26)"/><path class="cls-1" d="M326,258.34a.28.28,0,0,0,.18-.06.27.27,0,0,0,.05-.39.28.28,0,0,0-.39,0h0a.28.28,0,0,0-.05.39A.29.29,0,0,0,326,258.34Z" transform="translate(-0.75 -179.26)"/><path class="cls-1" d="M336.57,241l4.14,11.32a.27.27,0,0,0,.25.18l.1,0a.27.27,0,0,0,.16-.35l-4.14-11.32a.27.27,0,0,0-.35-.16A.27.27,0,0,0,336.57,241Z" transform="translate(-0.75 -179.26)"/><path class="cls-1" d="M336.09,239.69a.28.28,0,0,0,.26.18l.09,0a.27.27,0,0,0,.16-.35l-.22-.63a.28.28,0,0,0-.35-.16.27.27,0,0,0-.17.35Z" transform="translate(-0.75 -179.26)"/><path class="cls-1" d="M337,232.39a.27.27,0,0,0,0,.39.29.29,0,0,0,.19.08.28.28,0,0,0,.2-.09c1.78-1.84-1.26-6.63-1.39-6.83a.28.28,0,0,0-.38-.08.26.26,0,0,0-.08.37C336.37,227.51,338.24,231.12,337,232.39Z" transform="translate(-0.75 -179.26)"/><path class="cls-1" d="M345.43,263.94a.26.26,0,0,0-.31.22,1.81,1.81,0,0,1-.21.53.27.27,0,0,0,.12.37l.12,0a.27.27,0,0,0,.24-.14,2.05,2.05,0,0,0,.27-.71A.26.26,0,0,0,345.43,263.94Z" transform="translate(-0.75 -179.26)"/><path class="cls-1" d="M362.63,249.83h.06a.28.28,0,0,0,.27-.21,3.92,3.92,0,0,0,.09-.64.27.27,0,0,0-.27-.27h0a.28.28,0,0,0-.27.27,2.79,2.79,0,0,1-.07.52A.26.26,0,0,0,362.63,249.83Z" transform="translate(-0.75 -179.26)"/><path class="cls-1" d="M31.58,253.68h0a.28.28,0,0,0,.27-.24L32,253a.27.27,0,0,0-.24-.3.26.26,0,0,0-.3.23l-.06.5A.28.28,0,0,0,31.58,253.68Z" transform="translate(-0.75 -179.26)"/><path class="cls-1" d="M10.6,267.92h0a.26.26,0,0,0,.27-.24l.11-.91a.28.28,0,0,0-.24-.3.27.27,0,0,0-.3.24l-.11.91A.28.28,0,0,0,10.6,267.92Z" transform="translate(-0.75 -179.26)"/><path class="cls-1" d="M8,290.76h0a.28.28,0,0,0,.27-.24l2.29-20.36a.26.26,0,0,0-.24-.3.27.27,0,0,0-.3.24l-2.3,20.36A.29.29,0,0,0,8,290.76Z" transform="translate(-0.75 -179.26)"/><path class="cls-1" d="M31.32,239.49l-.68-.08a.27.27,0,0,0-.3.24.26.26,0,0,0,.24.3l.68.08h0a.27.27,0,0,0,.27-.25A.26.26,0,0,0,31.32,239.49Z" transform="translate(-0.75 -179.26)"/><path class="cls-1" d="M25.67,295.86l-.32,0a.26.26,0,0,0-.3.23.28.28,0,0,0,.24.31l.32,0h0a.27.27,0,0,0,0-.54Z" transform="translate(-0.75 -179.26)"/><path class="cls-1" d="M34.53,260.16h0l2-17.63a.27.27,0,0,0-.23-.3l-3.07-.37.59-5.11h0l.31-2.65a.27.27,0,0,0-.24-.3l-14.73-1.86a.29.29,0,0,0-.2.05.27.27,0,0,0-.1.18l-.17,1.37h0L17.9,240l-2.76-.33a.24.24,0,0,0-.2.06.27.27,0,0,0-.11.18L9,292.48l-1.16-.15a.28.28,0,0,0-.31.24L6,303.77H1a.27.27,0,0,0-.27.27.28.28,0,0,0,.27.28H31.18a.29.29,0,0,0,.28-.25l.86-8.48a.28.28,0,0,0-.24-.3l-1.57-.19.95-8.31h0l3.07-26.62Zm-8.26-.55,7.68.77L33.07,268l-2.87-.32.71-5.62a.27.27,0,0,0-.24-.3.27.27,0,0,0-.31.23l-.7,5.62-2.84-.32.6-4.74a.27.27,0,0,0-.54-.07l-.6,4.75-3-.34.82-6.58a.26.26,0,0,0-.23-.3.27.27,0,0,0-.31.23l-.83,6.59-3-.34.45-3.54a.28.28,0,0,0-.24-.31.27.27,0,0,0-.3.24l-.45,3.55-3-.33L17,260a.28.28,0,0,0-.24-.3.27.27,0,0,0-.3.24l-.77,6.11-3.14-.36,1-8.58,20.59,2.32-.05.41-7.68-.78a.29.29,0,0,0-.3.25A.28.28,0,0,0,26.27,259.61ZM32,277.32,29.15,277l.71-5.61a.28.28,0,0,0-.24-.31.27.27,0,0,0-.3.24l-.71,5.62-2.83-.32.59-4.74a.26.26,0,0,0-.23-.3.26.26,0,0,0-.31.23l-.6,4.75-3-.34.83-6.58a.28.28,0,0,0-.24-.31.27.27,0,0,0-.3.24l-.83,6.59-3-.34.44-3.55a.27.27,0,0,0-.23-.3.27.27,0,0,0-.31.23l-.45,3.56-3-.34.76-6.1a.26.26,0,0,0-.23-.3.27.27,0,0,0-.31.23l-.76,6.11L11.48,275l1-8.78,3.4.39h0L33,268.55ZM31,286.46l-2.84-.32.7-5.62a.26.26,0,0,0-.23-.3.27.27,0,0,0-.31.23l-.7,5.63-2.84-.32.6-4.75a.28.28,0,0,0-.55-.06l-.59,4.75-3-.35.83-6.58a.27.27,0,0,0-.24-.3.26.26,0,0,0-.3.23l-.83,6.59-3-.33.45-3.55a.29.29,0,0,0-.24-.31.27.27,0,0,0-.31.24l-.44,3.56-3-.34.77-6.1a.28.28,0,0,0-.24-.31.27.27,0,0,0-.3.24l-.77,6.11-3.1-.35,1-8.6,3.39.38h0l17.13,1.93ZM14.5,247.87l17.45,2h0l3.17.36-1,8.69-2.87-.32.49-4a.26.26,0,0,0-.23-.3.27.27,0,0,0-.31.24l-.5,4-2.83-.32.59-4.75a.26.26,0,0,0-.23-.3.27.27,0,0,0-.31.24l-.59,4.74-3-.34.83-6.58a.27.27,0,0,0-.24-.3.26.26,0,0,0-.3.23l-.83,6.59-3-.33.44-3.55a.27.27,0,1,0-.54-.07l-.44,3.55-3-.33.76-6.1a.27.27,0,1,0-.54-.07l-.76,6.11-3.17-.36Zm4.12-9.19,10,1.06h0a.28.28,0,0,0,.27-.24.29.29,0,0,0-.25-.3l-10-1.06.17-1.37,8.29,1h0a.27.27,0,0,0,0-.54l-8.29-1,.3-2.35,12,1.59h0a.27.27,0,0,0,0-.54l-12-1.59.11-.83,14.19,1.8-.25,2.11-8.87-1a.27.27,0,0,0-.06.54L33.27,237l-.56,4.84-14.27-1.72Zm-3.28,1.58,2.77.33h0l14.8,1.78h0l3.07.37-.79,6.92-2.9-.33.71-5.61a.28.28,0,0,0-.24-.31.27.27,0,0,0-.3.24l-.71,5.62L28.91,249l.6-4.74a.27.27,0,1,0-.54-.07l-.6,4.75-3-.34.82-6.59a.26.26,0,0,0-.23-.3.27.27,0,0,0-.31.24l-.82,6.59-3-.34.45-3.55a.27.27,0,0,0-.54-.07l-.45,3.56-3-.34.77-6.1a.27.27,0,0,0-.54-.07l-.77,6.11-3.18-.36Zm.81,60.87-.27,2.64h-5.1l.32-3.15a2.55,2.55,0,0,1,2.78-2.27,2.52,2.52,0,0,1,2.29,2.52A2.46,2.46,0,0,1,16.15,301.13Zm5.51,2.64.23-2.2a2.54,2.54,0,0,1,5.07.25,2.46,2.46,0,0,1,0,.26l-.17,1.69Zm9.28,0H27.32l.16-1.64a1.62,1.62,0,0,0,0-.31,3.08,3.08,0,0,0-6.15-.31l-.23,2.26H16.43l.26-2.58a1.77,1.77,0,0,0,0-.32,3.06,3.06,0,0,0-2.77-3.06,3,3,0,0,0-2.26.67,3.09,3.09,0,0,0-1.12,2.08l-.33,3.21H6.49l1.34-9.57,15.57,1.92h0a.27.27,0,0,0,.27-.24.28.28,0,0,0-.24-.31L7.91,293.66l.11-.75,1.07.13a.29.29,0,0,0,.1,0l21,2.55h.06l1.52.18Zm-3.85-9.09.74-5.82a.28.28,0,0,0-.24-.31.27.27,0,0,0-.3.24l-.74,5.83-2.83-.35.62-4.92a.26.26,0,0,0-.24-.3.26.26,0,0,0-.3.23l-.62,4.93-3-.37.84-6.73a.27.27,0,0,0-.23-.31.28.28,0,0,0-.31.24l-.84,6.73-3-.36.46-3.67a.27.27,0,0,0-.54-.07l-.46,3.67-3-.36a.14.14,0,0,0,0-.07l.77-6.12a.27.27,0,0,0-.54-.07l-.77,6.13a.13.13,0,0,0,0,.06l-3.06-.37.88-7.85L30.89,287,30,295Z" transform="translate(-0.75 -179.26)"/><path class="cls-1" d="M25.19,259l-.3,0a.27.27,0,0,0-.06.54l.3,0h0a.27.27,0,0,0,0-.54Z" transform="translate(-0.75 -179.26)"/><path class="cls-1" d="M150.35,254.81l-4.77-6.44a.28.28,0,0,0-.44,0l-4.77,6.44h0a.3.3,0,0,0-.05.15V304a.28.28,0,0,0,.28.28h9.54a.28.28,0,0,0,.27-.28V255A.3.3,0,0,0,150.35,254.81Zm-1.68,49V280.64a.27.27,0,0,0-.27-.27.28.28,0,0,0-.28.27v23.13H146.9v-7.11a.27.27,0,1,0-.54,0v7.11h-5.5V289.89h1.91a.27.27,0,1,0,0-.54h-1.91v-2.74H144a.27.27,0,1,0,0-.54h-3.12V255.24H146a.27.27,0,1,0,0-.54h-4.91l3.5-4.73,2.05,2.65a.28.28,0,0,0,.21.1.28.28,0,0,0,.22-.44L145,249.52l.39-.53,4.5,6.07v8.76h-4.5a.27.27,0,1,0,0,.54h4.5v2H143a.27.27,0,0,0-.27.27.28.28,0,0,0,.27.28h6.89v2.22h-2.12a.27.27,0,0,0-.27.27.28.28,0,0,0,.27.28h2.12v34.11Z" transform="translate(-0.75 -179.26)"/><path class="cls-1" d="M146.89,255.24h.3a.27.27,0,0,0,0-.54h-.3a.27.27,0,0,0,0,.54Z" transform="translate(-0.75 -179.26)"/><path class="cls-1" d="M148.4,277.31a.28.28,0,0,0-.28.28v.4a.28.28,0,0,0,.28.27.27.27,0,0,0,.27-.27v-.4A.27.27,0,0,0,148.4,277.31Z" transform="translate(-0.75 -179.26)"/><path class="cls-1" d="M146.63,294.45a.27.27,0,0,0-.27.27v.43a.27.27,0,1,0,.54,0v-.43A.27.27,0,0,0,146.63,294.45Z" transform="translate(-0.75 -179.26)"/><path class="cls-1" d="M217,215.76a1.78,1.78,0,0,0-.88.23,2.62,2.62,0,0,0-2.09-1.05,2.46,2.46,0,0,0-1,.21,4.91,4.91,0,0,0-9.47-.74,3.39,3.39,0,0,0-4.74,3.12,3.08,3.08,0,0,0,.1.8.27.27,0,0,0,.27.2h19.12a.28.28,0,0,0,.24-.13,1.78,1.78,0,0,0-1.55-2.64Zm1.14,2.23H199.41a2.38,2.38,0,0,1,0-.46,2.86,2.86,0,0,1,2.85-2.85,2.79,2.79,0,0,1,1.38.36.27.27,0,0,0,.23,0,.26.26,0,0,0,.16-.18,4.36,4.36,0,0,1,8.55.72.26.26,0,0,0,.15.22.27.27,0,0,0,.26,0,2,2,0,0,1,1.08-.32,2,2,0,0,1,1.78,1,.3.3,0,0,0,.19.14.29.29,0,0,0,.22-.06,1.18,1.18,0,0,1,.78-.29,1.23,1.23,0,0,1,1.23,1.23A1.18,1.18,0,0,1,218.14,218Z" transform="translate(-0.75 -179.26)"/><path class="cls-1" d="M206.74,219h-8.89a.27.27,0,0,0,0,.54h8.89a.27.27,0,1,0,0-.54Z" transform="translate(-0.75 -179.26)"/><path class="cls-1" d="M196,219h-.11a.27.27,0,1,0,0,.54H196a.27.27,0,1,0,0-.54Z" transform="translate(-0.75 -179.26)"/><path class="cls-1" d="M67.58,205.13a1.72,1.72,0,0,0-.89.24,2.59,2.59,0,0,0-2.08-1.05,2.67,2.67,0,0,0-1,.2,4.9,4.9,0,0,0-9.46-.73,3.27,3.27,0,0,0-1.35-.28,3.4,3.4,0,0,0-3.4,3.4,3.21,3.21,0,0,0,.11.8.26.26,0,0,0,.26.2H68.88a.27.27,0,0,0,.24-.14,1.73,1.73,0,0,0,.23-.86A1.78,1.78,0,0,0,67.58,205.13Zm1.13,2.24H50a2.45,2.45,0,0,1,0-.46,2.84,2.84,0,0,1,4.23-2.5.27.27,0,0,0,.39-.16,4.36,4.36,0,0,1,8.55.72.31.31,0,0,0,.15.22.29.29,0,0,0,.27,0,2,2,0,0,1,2.85.72.26.26,0,0,0,.19.13.29.29,0,0,0,.22-.06,1.25,1.25,0,0,1,.79-.28,1.23,1.23,0,0,1,1.13,1.69Z" transform="translate(-0.75 -179.26)"/><path class="cls-1" d="M57.31,208.41H48.42a.27.27,0,0,0-.27.27.28.28,0,0,0,.27.28h8.89a.29.29,0,0,0,.28-.28A.28.28,0,0,0,57.31,208.41Z" transform="translate(-0.75 -179.26)"/><path class="cls-1" d="M46.59,208.41h-.11a.27.27,0,0,0-.27.27.28.28,0,0,0,.27.28h.11a.29.29,0,0,0,.28-.28A.28.28,0,0,0,46.59,208.41Z" transform="translate(-0.75 -179.26)"/><path class="cls-1" d="M123.31,183.9a1.72,1.72,0,0,0-.89.24,2.59,2.59,0,0,0-2.08-1.06,2.5,2.5,0,0,0-1,.21,4.9,4.9,0,0,0-9.46-.73,3.25,3.25,0,0,0-1.34-.28,3.4,3.4,0,0,0-3.4,3.4,3.06,3.06,0,0,0,.1.79.28.28,0,0,0,.26.21h19.13a.25.25,0,0,0,.23-.14,1.73,1.73,0,0,0,.23-.86A1.78,1.78,0,0,0,123.31,183.9Zm1.14,2.23H105.71a2.28,2.28,0,0,1,0-.45,2.84,2.84,0,0,1,4.23-2.5.25.25,0,0,0,.24,0,.26.26,0,0,0,.16-.18,4.36,4.36,0,0,1,8.54.73.27.27,0,0,0,.15.21.26.26,0,0,0,.27,0,2.05,2.05,0,0,1,1.08-.31,2,2,0,0,1,1.77,1,.26.26,0,0,0,.19.13.31.31,0,0,0,.23-.06,1.2,1.2,0,0,1,.78-.28,1.23,1.23,0,0,1,1.22,1.23A1.38,1.38,0,0,1,124.45,186.13Z" transform="translate(-0.75 -179.26)"/><path class="cls-1" d="M113.05,187.18h-8.89a.27.27,0,1,0,0,.54h8.89a.27.27,0,1,0,0-.54Z" transform="translate(-0.75 -179.26)"/><path class="cls-1" d="M102.33,187.18h-.12a.27.27,0,0,0,0,.54h.12a.27.27,0,1,0,0-.54Z" transform="translate(-0.75 -179.26)"/><path class="cls-1" d="M309.16,204.73H295.51a.28.28,0,0,1-.27-.21,2.32,2.32,0,0,1-.07-.59,2.5,2.5,0,0,1,2.5-2.5,2.59,2.59,0,0,1,.92.17,3.58,3.58,0,0,1,6.86.52,2,2,0,0,1,2.17.61,1.37,1.37,0,0,1,.61-.14,1.34,1.34,0,0,1,1.34,1.34,1.38,1.38,0,0,1-.17.66A.29.29,0,0,1,309.16,204.73Zm-13.43-.55H309a.69.69,0,0,0,0-.25.79.79,0,0,0-.79-.8.78.78,0,0,0-.51.19.29.29,0,0,1-.22.06.3.3,0,0,1-.19-.14,1.39,1.39,0,0,0-1.2-.69,1.35,1.35,0,0,0-.73.21.29.29,0,0,1-.27,0,.27.27,0,0,1-.15-.22,3,3,0,0,0-3-2.73,3.05,3.05,0,0,0-2.93,2.23.26.26,0,0,1-.16.18.27.27,0,0,1-.23,0,2,2,0,0,0-2.91,1.71A2.11,2.11,0,0,0,295.73,204.18Z" transform="translate(-0.75 -179.26)"/><path class="cls-1" d="M300.9,206h-6.35a.27.27,0,0,1-.27-.27.28.28,0,0,1,.27-.28h6.35a.28.28,0,0,1,.27.28A.27.27,0,0,1,300.9,206Z" transform="translate(-0.75 -179.26)"/><path class="cls-1" d="M747.73,303.77h-183a.27.27,0,0,0-.27.27.28.28,0,0,0,.27.28h183A.28.28,0,0,0,748,304,.27.27,0,0,0,747.73,303.77Z" transform="translate(-0.75 -179.26)"/><path class="cls-1" d="M557.88,303.77H401.14a.27.27,0,0,0-.27.27.28.28,0,0,0,.27.28H557.88a.29.29,0,0,0,.28-.28A.28.28,0,0,0,557.88,303.77Z" transform="translate(-0.75 -179.26)"/><path class="cls-1" d="M446.74,269.06a.26.26,0,0,0-.28,0,32.23,32.23,0,0,1-9.85,3.5c-1.45.12-7,.41-13.18.21a70.22,70.22,0,0,1-9.7-.9,22.49,22.49,0,0,1-6.26-2.31.31.31,0,0,0-.28,0,.28.28,0,0,0-.13.24v2.34a.25.25,0,0,0,.12.22,11.4,11.4,0,0,0,2.76,1.18,41.52,41.52,0,0,0,6.9,1.48v1.36h-.65a.28.28,0,0,0-.28.27v2a.28.28,0,0,0,.28.27h.39v.79h-1.23a.27.27,0,0,0-.27.27v.4h-5.24a.27.27,0,0,0-.28.27v2a.27.27,0,0,0,.28.27h6.74v17.5h-.39a.28.28,0,0,0-.28.27V304a.29.29,0,0,0,.28.28h4.68a.28.28,0,0,0,.27-.28V300.7a.27.27,0,0,0-.27-.27h-.4v-17.5h14.16v17.5h-.4a.27.27,0,0,0-.27.27V304a.28.28,0,0,0,.27.28h4.68a.28.28,0,0,0,.27-.28V300.7a.27.27,0,0,0-.27-.27h-.4v-17.5h6.08a.28.28,0,0,0,.28-.27v-2a.28.28,0,0,0-.28-.27h-4.53V280a.28.28,0,0,0-.28-.27h-1.27v-.79h.4a.27.27,0,0,0,.27-.27v-2a.27.27,0,0,0-.27-.27h-.66V275a27,27,0,0,0,6.84-2.07h0a9.41,9.41,0,0,0,1.49-.87.26.26,0,0,0,.1-.2l.17-2.5A.25.25,0,0,0,446.74,269.06Zm-27.08,6.28v1h-2.27v-1.29l.23,0,1.84.21Zm-3.2,1.57h4.13v1.46h-4.13Zm.67,2h2.79v.79h-2.79Zm-1.5,1.34h5.8v.12h-5.8Zm5,23.51h-4.13V301h4.13Zm-.67-3.34h-.65V285.7a.27.27,0,0,0-.54,0v14.73h-.6v-4.26a.27.27,0,1,0-.54,0v4.26h-.46v-17.5h2.79Zm18.72,3.34h-4.13V301h4.13Zm-.67-3.34h-.52V288.32a.28.28,0,0,0-.55,0v12.11h-.66v-8.74a.28.28,0,0,0-.55,0v8.74h-.51v-17.5H438Zm6.35-18H410.11v-.46h24.52a.27.27,0,0,0,.27-.27.28.28,0,0,0-.27-.28H410.11v-.45h34.21Zm-16-2h-1.79v-3.47h1.79Zm11.23,0H433.7v-.12h5.81Zm-1.54-.67h-2.79v-.79H438Zm.67-1.34h-4.13v-1.46h4.13Zm-4.41-2a.27.27,0,0,0-.27.27v2a.27.27,0,0,0,.27.27h.4v.79h-1.2a.27.27,0,0,0-.27.27v.4h-4.34v-3.74a.27.27,0,0,0-.27-.27h-2.34a.27.27,0,0,0-.27.27v3.74h-4V280a.27.27,0,0,0-.27-.27h-1.23v-.79h.4a.27.27,0,0,0,.27-.27v-2a.27.27,0,0,0-.27-.27h-.66v-1c2,.18,4.22.3,6.5.35.57,0,1.14,0,1.7,0a62.6,62.6,0,0,0,6.48-.32v.93Zm2.53-1.17.95-.14v1.31h-2.28v-1l1.18-.15Zm8.09-2.81,0,0a26.69,26.69,0,0,1-6.89,2.06c-.91.15-1.85.29-2.81.4a64.17,64.17,0,0,1-8.41.33c-2.38-.05-4.65-.18-6.76-.38-.94-.09-1.86-.19-2.81-.32a40.32,40.32,0,0,1-7-1.49,13.56,13.56,0,0,1-2.51-1v-.74c1.3.85,5.58,3.05,15.29,3.2h0a.28.28,0,0,0,0-.55c-10.59-.16-14.66-2.84-15.3-3.32v-.32a23,23,0,0,0,6,2.15,70.11,70.11,0,0,0,9.78.9c6.21.21,11.78-.09,13.25-.21a32.27,32.27,0,0,0,9.63-3.31l-.05.77a24.25,24.25,0,0,1-7.66,2.77.27.27,0,0,0-.22.32.26.26,0,0,0,.26.22h.05a25.24,25.24,0,0,0,7.53-2.66l0,.45A9.72,9.72,0,0,1,444.85,272.39Z" transform="translate(-0.75 -179.26)"/><path class="cls-1" d="M417.67,295a.27.27,0,0,0,.19.08l.1,0a.28.28,0,0,0,.09-.06.18.18,0,0,0,.06-.09.16.16,0,0,0,0-.1.27.27,0,0,0-.08-.19.26.26,0,0,0-.38,0,.24.24,0,0,0-.08.19.16.16,0,0,0,0,.1A.18.18,0,0,0,417.67,295Z" transform="translate(-0.75 -179.26)"/><path class="cls-1" d="M437.17,287.52a.28.28,0,0,0,.28-.28V287a.28.28,0,1,0-.55,0v.22A.28.28,0,0,0,437.17,287.52Z" transform="translate(-0.75 -179.26)"/><path class="cls-1" d="M424.62,273.9h-.55a.28.28,0,0,0-.27.28.27.27,0,0,0,.27.27h.56a.27.27,0,0,0,.27-.27C424.89,274,424.78,273.87,424.62,273.9Z" transform="translate(-0.75 -179.26)"/><path class="cls-1" d="M437.14,273.52l-.55.06a.26.26,0,0,0-.25.29.27.27,0,0,0,.27.25h0l.57-.05a.27.27,0,0,0,.24-.3A.29.29,0,0,0,437.14,273.52Z" transform="translate(-0.75 -179.26)"/><path class="cls-1" d="M436.57,281.38h-.72a.28.28,0,0,0-.27.28.27.27,0,0,0,.27.27h.72a.27.27,0,0,0,.27-.27A.28.28,0,0,0,436.57,281.38Z" transform="translate(-0.75 -179.26)"/><path class="cls-1" d="M630.1,292.12V288s0,0,0-.05l0-.05,0,0,0,0,0,0-.05,0h0c-10.46-2.81-18.24-15.29-18.84-16.28v-3.42a.27.27,0,0,0-.27-.27h0v-.35a.28.28,0,0,0-.55,0v.35H610a.27.27,0,0,0-.27.27v.25h-4.38v-.25a.27.27,0,0,0-.27-.27h0v-.35a.27.27,0,0,0-.54,0v.35h0a.27.27,0,0,0-.27.27v3.43c-.52,1-8.91,17.18-26.71,17.4h-.35c-17.55,0-26.42-16.3-27-17.4v-3.43a.28.28,0,0,0-.28-.27h0v-.35a.28.28,0,0,0-.55,0v.35h-.24a.27.27,0,0,0-.27.27v.25h-4.37v-.25a.28.28,0,0,0-.28-.27h0v-.35a.27.27,0,1,0-.54,0v.35h0a.27.27,0,0,0-.27.27v3.42c-8,13.62-18.93,16.25-19,16.27h0l0,0s0,0,0,0l0,0s0,0,0,.05l0,0a.13.13,0,0,0,0,.06v4.13h0v2.59a.27.27,0,0,0,.27.27h19v9a.27.27,0,0,0,.27.27h1.17a.28.28,0,0,0,.28-.27v-1.15h3.39V304a.28.28,0,0,0,.28.27h1.17a.28.28,0,0,0,.28-.27v-9h54.05v9a.27.27,0,0,0,.27.27h1.17a.27.27,0,0,0,.27-.27v-1.15h3.41V304a.27.27,0,0,0,.27.27h1.17a.27.27,0,0,0,.27-.27v-9h18.77a.27.27,0,0,0,.27-.27v-2.59Zm-4.21-.27v-5.08a19.29,19.29,0,0,0,3.67,1.44v3.64Zm-4.14,0v-7.67a28.52,28.52,0,0,0,3.59,2.31v5.36Zm-.55-8.09v8.09h-3.48V280.67A38.85,38.85,0,0,0,621.2,283.76Zm-7.79,8.09V275.77a52,52,0,0,0,3.82,4.41.35.35,0,0,0-.06.17v11.5Zm-.47-16.69a.26.26,0,0,0-.08.19v16.5h-1.8V272.49C611.47,273.1,612.1,274,612.94,275.16Zm-3-6.32a.27.27,0,0,0,.27-.27v-.24h.26v23.52h-.63v-2.38a2.41,2.41,0,0,0-2.4-2.31,2.28,2.28,0,0,0-2.09,2.51v2.18h-.63V271.56h0v-3.22l0,.24a.27.27,0,0,0,.27.27Zm-4,23v-2.19c0-.08,0-1.9,1.57-2h.07c1.55,0,1.76,1.75,1.77,1.79v2.36Zm-1.71,0h-1.29V274.68c.56-.83,1-1.54,1.29-2.06Zm-1.83-16.38v16.38h-3.9v-8.47a.27.27,0,0,0-.54,0v8.47h-3.65v-8s0,0,0-.06A37,37,0,0,0,602.4,275.47Zm-12.08,16.38v-5.63a29.65,29.65,0,0,0,3.44-2.09v7.72Zm-8.55,0v-2.8a28,28,0,0,0,3.74-.85v2a.28.28,0,0,0,.28.27.27.27,0,0,0,.27-.27V288a28.09,28.09,0,0,0,3.72-1.52v5.35Zm-4,0v-2.44a29.23,29.23,0,0,0,3.44-.27v2.71Zm-.54-2.42v2.42h-3.76v-2.67a27.39,27.39,0,0,0,3.68.25Zm-8,2.42v-3.56a29.53,29.53,0,0,0,3.68.81v2.75Zm-8.35,0v-7.64a29.43,29.43,0,0,0,3.59,2.16V290a.27.27,0,0,0,.27.27.28.28,0,0,0,.28-.27v-3.38a27.24,27.24,0,0,0,3.67,1.46v3.74Zm-4,0V280.94a34.26,34.26,0,0,0,3.48,2.9v8Zm-.55-11.44v11.44h-3.76V279.6a.28.28,0,1,0-.55,0v12.25h-1.85V272.59A39.15,39.15,0,0,0,556.34,280.41Zm-7.24-11.57a.28.28,0,0,0,.28-.27v-.24h.25v23.52H549v-2.38a2.44,2.44,0,0,0-2.4-2.31,2.28,2.28,0,0,0-2.09,2.51v2.18h-.63V268.33l0,.24a.27.27,0,0,0,.27.27Zm-4,23v-2.19c0-.08,0-1.9,1.56-2s1.83,1.75,1.83,1.79v2.36Zm-1.72,0h-1.23V274.42c.42-.6.83-1.24,1.23-1.9Zm-6.21-11.43v7.74a.27.27,0,0,0,.54,0v-8.29a41.16,41.16,0,0,0,3.9-4.66v16.64h-8.09v-8.28A36.77,36.77,0,0,0,537.13,280.42Zm-7.64,11.43v-5.7a33.32,33.32,0,0,0,3.44-2.18v7.88Zm-4.85,0v-3.63a23.28,23.28,0,0,0,4.31-1.78v5.41Zm19.87,11.84h-.63V295h.63v8.7Zm3.94-4.95L546.94,300l-1.88-1.49V298l1.78-1.34,1.61,1.28Zm-3.39-1.38v-2.08l1.34,1.07Zm0,1.83,1.44,1.14-1.44,1.17Zm3.39.26v1.72l-1.07-.85Zm0-2.17-1.16-.92,1.16-.86Zm-1.6-1.27-1.29-1h2.66Zm-1.79,6.25v-.05l1.88-1.54,1.51,1.2v.39Zm4.57,1.43H549v-8.6l.13-.1h.5Zm55.77,0h-.63V295h.63v8.7Zm4-6.41-1.16-.92,1.16-.86Zm0,1.46L607.83,300l-1.89-1.49V298l1.8-1.34,1.61,1.28Zm-3.41-1.38v-2.08l1.35,1.07Zm0,1.82,1.46,1.15-1.46,1.18Zm3.41.27v1.72l-1.08-.85Zm-1.6-3.44-1.3-1h2.66Zm-1.81,6.25v-.05l1.9-1.54,1.51,1.2v.39Zm4.58,1.43h-.63v-8.6l.13-.1h.5Zm19-9.24H524.63v-.76h68.74a.27.27,0,1,0,0-.54H524.63v-.75H629.56Z" transform="translate(-0.75 -179.26)"/><path class="cls-1" d="M544.78,286.28h4A.27.27,0,0,0,549,286v-2.33a2.41,2.41,0,0,0-2.4-2.31,2.27,2.27,0,0,0-2.09,2.51V286A.27.27,0,0,0,544.78,286.28Zm1.84-4.37c1.62-.08,1.83,1.75,1.84,1.79v2h-3.4v-1.87C545.05,283.79,545,282,546.62,281.91Z" transform="translate(-0.75 -179.26)"/><path class="cls-1" d="M544.78,280.45h4a.27.27,0,0,0,.27-.27v-2.34a2.4,2.4,0,0,0-2.4-2.3,2.27,2.27,0,0,0-2.09,2.5v2.14A.27.27,0,0,0,544.78,280.45Zm1.84-4.37c1.62-.06,1.83,1.75,1.84,1.79v2h-3.4V278C545.05,278,545,276.13,546.62,276.08Z" transform="translate(-0.75 -179.26)"/><path class="cls-1" d="M544.78,274.62h4a.27.27,0,0,0,.27-.27V272a2.42,2.42,0,0,0-2.4-2.31,2.28,2.28,0,0,0-2.09,2.51v2.14A.27.27,0,0,0,544.78,274.62Zm1.84-4.37c1.62-.06,1.83,1.74,1.84,1.79v2h-3.4v-1.86C545.05,272.13,545,270.3,546.62,270.25Z" transform="translate(-0.75 -179.26)"/><path class="cls-1" d="M605.67,286.28h4a.27.27,0,0,0,.27-.27v-2.33a2.43,2.43,0,0,0-2.4-2.31,2.27,2.27,0,0,0-2.09,2.51V286A.27.27,0,0,0,605.67,286.28Zm1.84-4.37h.07c1.55,0,1.76,1.75,1.77,1.79v2H606v-1.87C605.94,283.79,605.92,282,607.51,281.91Z" transform="translate(-0.75 -179.26)"/><path class="cls-1" d="M605.67,280.45h4a.27.27,0,0,0,.27-.27v-2.34a2.42,2.42,0,0,0-2.4-2.3,2.27,2.27,0,0,0-2.09,2.5v2.14A.27.27,0,0,0,605.67,280.45Zm1.84-4.37h.07c1.55,0,1.76,1.75,1.77,1.79v2H606V278C605.94,278,605.92,276.13,607.51,276.08Z" transform="translate(-0.75 -179.26)"/><path class="cls-1" d="M605.67,274.62h4a.27.27,0,0,0,.27-.27V272a2.43,2.43,0,0,0-2.4-2.31,2.28,2.28,0,0,0-2.09,2.51v2.14A.27.27,0,0,0,605.67,274.62Zm1.84-4.37h.07c1.55,0,1.76,1.74,1.77,1.79v2H606v-1.86C605.94,272.13,605.91,270.3,607.51,270.25Z" transform="translate(-0.75 -179.26)"/><path class="cls-1" d="M537.4,290.34a.27.27,0,0,0,.27-.27v-.24a.27.27,0,1,0-.54,0v.24A.27.27,0,0,0,537.4,290.34Z" transform="translate(-0.75 -179.26)"/><path class="cls-1" d="M552.3,278.66a.27.27,0,0,0,.28-.27v-.88a.28.28,0,1,0-.55,0v.88A.27.27,0,0,0,552.3,278.66Z" transform="translate(-0.75 -179.26)"/><path class="cls-1" d="M564.78,290.76a.28.28,0,0,0-.27.28v.42a.27.27,0,0,0,.27.27.28.28,0,0,0,.28-.27V291A.29.29,0,0,0,564.78,290.76Z" transform="translate(-0.75 -179.26)"/><path class="cls-1" d="M585.89,290.87a.28.28,0,0,0-.3.05.36.36,0,0,0-.06.3l.06.09a.3.3,0,0,0,.2.08.27.27,0,0,0,.19-.08s0-.06.06-.09a.3.3,0,0,0,0-.1.32.32,0,0,0-.08-.2A.26.26,0,0,0,585.89,290.87Z" transform="translate(-0.75 -179.26)"/><path class="cls-1" d="M599.35,293.15h-.59a.27.27,0,0,0,0,.54h.59a.27.27,0,1,0,0-.54Z" transform="translate(-0.75 -179.26)"/><path class="cls-1" d="M598.23,282.71a.27.27,0,0,0,.27-.27v-.36a.27.27,0,1,0-.54,0v.36A.27.27,0,0,0,598.23,282.71Z" transform="translate(-0.75 -179.26)"/><path class="cls-1" d="M590.05,285.14l.13,0a28.91,28.91,0,0,0,9.93-8.53.27.27,0,0,0-.07-.38.28.28,0,0,0-.38.07,28.39,28.39,0,0,1-9.74,8.36.27.27,0,0,0-.11.37A.27.27,0,0,0,590.05,285.14Z" transform="translate(-0.75 -179.26)"/><path class="cls-1" d="M588.32,286h.1l.31-.14a.27.27,0,0,0,.14-.36.28.28,0,0,0-.36-.14l-.29.13a.27.27,0,0,0-.16.35A.28.28,0,0,0,588.32,286Z" transform="translate(-0.75 -179.26)"/><path class="cls-1" d="M511.15,303.88l-19.24-25.45a.27.27,0,0,0-.22-.11.26.26,0,0,0-.21.11L479.17,294.7,463.29,272a.27.27,0,0,0-.44,0l-22.29,31.94a.26.26,0,0,0,0,.28.28.28,0,0,0,.24.15h70.16a.28.28,0,0,0,.24-.15A.26.26,0,0,0,511.15,303.88Zm-25.65-.11-.46-.66-.86-1.23h0l-.79-1.13a.28.28,0,0,0-.38-.07.27.27,0,0,0-.06.38l1.79,2.57.1.14H441.3l1.81-2.59h22.12a.27.27,0,0,0,.27-.27.28.28,0,0,0-.27-.28H443.49L445.3,298h26.39a.27.27,0,0,0,0-.54h-26l2-2.86h14.14a.28.28,0,0,0,.27-.28.27.27,0,0,0-.27-.27H448.06l2.07-3h17a.28.28,0,0,0,.27-.28.27.27,0,0,0-.27-.27H450.51L453,287h10.06a.27.27,0,0,0,.27-.27.28.28,0,0,0-.27-.28h-9.68l1.77-2.54h5.45a.27.27,0,0,0,0-.54h-5.07l1.93-2.77h6.95a.27.27,0,0,0,0-.54h-6.57l1.5-2.15h3.72a.27.27,0,0,0,0-.54h-3.34l3.34-4.79,17.69,25.34a.26.26,0,0,0,.38.07.27.27,0,0,0,.06-.38l-1.7-2.44L491.69,279l2.82,3.73h-3.85a.28.28,0,0,0,0,.55h4.27l1.95,2.58h-9.06a.27.27,0,1,0,0,.54h9.47l1.81,2.39H488.67a.28.28,0,0,0-.27.28.27.27,0,0,0,.27.27h10.84l1.59,2.11H486.89a.27.27,0,1,0,0,.54h14.62l1.56,2.06H492a.27.27,0,0,0-.27.27.28.28,0,0,0,.27.28h11.49l2.16,2.86H487.82a.27.27,0,0,0,0,.54h18.24l2,2.59H491a.28.28,0,0,0-.27.28.27.27,0,0,0,.27.27h17.43l2,2.59Z" transform="translate(-0.75 -179.26)"/><path class="cls-1" d="M481.83,298.5a.27.27,0,0,0-.38-.06.26.26,0,0,0-.07.38l.17.24a.26.26,0,0,0,.22.12.3.3,0,0,0,.16-.05.28.28,0,0,0,.07-.38Z" transform="translate(-0.75 -179.26)"/><path class="cls-1" d="M462.22,283.37h-.4a.27.27,0,1,0,0,.54h.4a.27.27,0,0,0,0-.54Z" transform="translate(-0.75 -179.26)"/><path class="cls-1" d="M474.73,297.5h-.44a.27.27,0,1,0,0,.54h.44a.27.27,0,0,0,0-.54Z" transform="translate(-0.75 -179.26)"/><path class="cls-1" d="M484.83,291.49h-.51a.27.27,0,1,0,0,.54h.51a.27.27,0,0,0,0-.54Z" transform="translate(-0.75 -179.26)"/><path class="cls-1" d="M490.22,300.66a.23.23,0,0,0-.2,0,.19.19,0,0,0-.09,0,.3.3,0,0,0-.08.2.27.27,0,0,0,.08.19.2.2,0,0,0,.09.06l.1,0,.1,0a.2.2,0,0,0,.09-.06.27.27,0,0,0,.08-.19.26.26,0,0,0-.08-.2A.19.19,0,0,0,490.22,300.66Z" transform="translate(-0.75 -179.26)"/><path class="cls-1" d="M463,294.11a.3.3,0,0,0-.3.06.27.27,0,0,0-.08.19.43.43,0,0,0,0,.11.24.24,0,0,0,.06.08.18.18,0,0,0,.09.06.19.19,0,0,0,.1,0,.23.23,0,0,0,.11,0,.16.16,0,0,0,.08-.06.23.23,0,0,0,.09-.19.25.25,0,0,0-.09-.19A.24.24,0,0,0,463,294.11Z" transform="translate(-0.75 -179.26)"/><path class="cls-1" d="M479.78,292.89a.25.25,0,0,0,.21-.1l5.05-6.62a.27.27,0,0,0-.43-.33l-5.05,6.61a.28.28,0,0,0,.05.39A.34.34,0,0,0,479.78,292.89Z" transform="translate(-0.75 -179.26)"/><path class="cls-1" d="M479.16,293.69a.26.26,0,0,0,.22-.1l.14-.18a.28.28,0,1,0-.44-.33l-.13.18a.27.27,0,0,0,.05.38A.25.25,0,0,0,479.16,293.69Z" transform="translate(-0.75 -179.26)"/><path class="cls-1" d="M644.59,243.51a.27.27,0,0,0,.27-.26V243a.28.28,0,0,0-.26-.29.26.26,0,0,0-.28.26v.24a.27.27,0,0,0,.25.29Z" transform="translate(-0.75 -179.26)"/><path class="cls-1" d="M650.17,271.2h.05a.25.25,0,0,0,.25-.27.29.29,0,0,0-.3-.27.27.27,0,0,0,0,.54Z" transform="translate(-0.75 -179.26)"/><path class="cls-1" d="M669,302h-1.47l-8.1-13h.53a.27.27,0,0,0,.27-.27v-2.5a.27.27,0,0,0-.27-.27h-1.25v-2.22a.27.27,0,0,0-.27-.27h-2.55l-3.4-10.68h1.49a.27.27,0,0,0,.27-.27v-1.62a.27.27,0,0,0-.27-.27h-.56v-1.35a.28.28,0,0,0-.28-.27h-1.31l-2-15.83H650a.27.27,0,0,0,.27-.27v-1.38a.27.27,0,0,0-.27-.27h-.19l-1-17.15a.22.22,0,0,0,0-.08l-.09-1.55h.43a.27.27,0,0,0,.27-.27v-4.36a.27.27,0,0,0-.27-.27h-.14l.79-.79a.27.27,0,0,0,0-.39l-2.6-2.6v-7.07a.27.27,0,1,0-.54,0v7.07l-2.6,2.6a.27.27,0,0,0,0,.39l.79.79h-.6a.27.27,0,0,0-.27.27v4.36a.27.27,0,0,0,.27.27h.7l-.25,5.05a.27.27,0,0,0,0,.12.31.31,0,0,0,0,.08l-.21,3.92h0a.08.08,0,0,0,0,.07v0l0,0,0,0h0l1.9,1.93-1.62,1.63,0-.57a.28.28,0,0,0-.26-.29.27.27,0,0,0-.29.26l-.06,1.29h0l-.25,4.88a0,0,0,0,0,0,0v.24h-.32a.27.27,0,0,0-.27.27v1.38a.27.27,0,0,0,.27.27h.47l-.67,4.87h0l-1.49,11H640.3a.27.27,0,0,0-.27.27v1.35h-.44a.28.28,0,0,0-.28.27v1.62a.28.28,0,0,0,.28.27h1.46l-3.4,10.68h-2.59a.27.27,0,0,0-.27.27V286h-1a.27.27,0,0,0-.27.27v2.5a.27.27,0,0,0,.27.27h1.1l-8.1,13h-1.47a.27.27,0,0,0-.27.27V304a.27.27,0,0,0,.27.27h9.16a.27.27,0,0,0,.27-.27v-1.66c0-.21.72-9.47,12.13-9.86a12.06,12.06,0,0,1,8.58,2.71l.08.08h0a13.19,13.19,0,0,1,4,7.08V304a.27.27,0,0,0,.27.27H669a.27.27,0,0,0,.27-.27V302.3A.27.27,0,0,0,669,302Zm-15.43-8.76.4-.9a19.35,19.35,0,0,1,2.27,1.33l0,.06-.62.88A10.7,10.7,0,0,0,653.52,293.27Zm-2.85-1,.37-1a16.06,16.06,0,0,1,2.4.89l-.41.9A11.47,11.47,0,0,0,650.67,292.24Zm-9.09.64-.46-.95a16.26,16.26,0,0,1,2.3-.78l.37,1.1A13.37,13.37,0,0,0,641.58,292.88Zm-2.45,1.22-.51-.81a14.53,14.53,0,0,1,2-1.13l.44.91A12.18,12.18,0,0,0,639.13,294.1ZM634.2,302h-.7l1.29-2.36A11.75,11.75,0,0,0,634.2,302Zm-5.24-2.5,1.62,1.23-3,1Zm2.8-4.5,1,2-3.18,1.46Zm2.3-3.69,1,1.74-2.63.89ZM661.82,294l-2.09-.7.94-1.14Zm2.82,4.53L661.46,297l1-2Zm2.05,3.3-3-1,1.62-1.24ZM663,300.55l-2.86-1,1-2,3.61,1.66ZM661,296.82l-3-1.39,1.43-1.72,2.71.92Zm-6-6.51,1.66.47-.89.94Zm2.25.64,3,.86-1.05,1.27-3-1Zm.42-.45,1.23-1.3,1.25,2Zm-.59-.17-2.44-.7-.33-.6h4Zm-3.4-1.3.53,1h0l0,.07H640l.57-1Zm-12.89,2.48a.23.23,0,0,0-.11,0,.18.18,0,0,0-.07,0,16.73,16.73,0,0,0-1.92,1l1.1-2h3.59A16.94,16.94,0,0,0,640.74,291.51Zm-3.34-1,1.93-.32-.81,1.5Zm.69,1.52-2.52.85L634.5,291l2.25-.37Zm1.57-2.44-2.71.44-1-1h4Zm-3.36.55-1.68.27.77-1.24Zm-1,3.4,1,1.84-3.08,1.41-1.11-2.19Zm-4.12,7-1.78-1.36,3.61-1.66,1,2Zm2.67-.34-.91,1.68-1.24-.94Zm-2.77,1,1.14.87h-3.69Zm3.36-2-.93-1.84,2.58-1.18Zm2.28-4.17-.89-1.58,2.15-.73Zm17.76-4.36,1.14,2.08c-.57-.35-1.14-.65-1.69-.92l0,0h0a17.31,17.31,0,0,0-3.06-1.12Zm1.74,2.05,2.56.87-1.26,1.52Zm4.47,4.64-.93,1.84-1.65-3Zm1.81,3.65-1.23.94-.92-1.68Zm.62.21,2.55.87H662Zm-24.2-19.91,1.4,1-2,1Zm.89-2.82,1.37,1.1-2,.8Zm.8-2.5,1.06.95-1.56.63Zm2.48,5.6-.41,1.78-1.31-.95Zm-2.22.47-1.54-1.13,2.33-.95L643,281Zm2.45-1.45-1.08-.87,1.42-.58Zm-1.57-1.26-1.54-1.24,1.91-.76,1.42,1.27Zm2.14-1.15-1.2-1.08,1.6-.64Zm-1.66-1.49L641,275.54l1.89-1,1.23,1.34Zm2.27-1.15-1.11-1.2,1.59-.83ZM643,273.88l-1-1.06h3Zm-.51.26-1.58.82.6-1.89Zm-1.68,8.49,1.19.87h-3Zm4.87-9.81h2.07l2.5,10.68h-7.07Zm7.65,4.69-1.62-.66,1.09-1Zm.9,2.82-2-.8,1.37-1.1Zm.93,2.92-2-1,1.4-1ZM649,275.5l-.48-2,1.59.83Zm1.61-.94,1.81.93-1.21,1.14-1.83-.73Zm.16,2.48-1.16,1.09-.4-1.71Zm.56.23,2,.78-1.54,1.24-1.8-.73Zm-.07,2.41-1.08.87-.34-1.45Zm-.74,1.3,1.32-1.06,2.33.95L652.6,282Zm1.61,1.38-1.31.95-.41-1.78ZM651,274.14l1-1.07.6,1.9Zm-.5-.26-2.05-1.06h3Zm2.19,8.75,1.8.87h-3Zm-9.94-15.55,1,.86-1.19.8Zm.35-2.61.79.78-1,.7Zm.41-3,.85,1-1.09.82Zm.73-5.32.65.66-.83.67Zm5.54,1.26-.91-.65.73-.72Zm.38,3-1-.84.75-.91Zm.36,2.78-1-.7.79-.82Zm.36,2.78-1.07-.75.86-.86Zm.35,2.77-1.14-.8.93-.84Zm-5.7-1.38-.11,1.39-.83-.74Zm-1.36.27-1.19-1.06,1.3-.92,1.14,1.13Zm1.46-1.42-.9-.89,1-.73Zm-1.29-1.28-1-1,1.39-1.06,1,1.11Zm1.51-1.57-.7-.82.82-.62Zm-1.06-1.23-1.08-1.26,1.11-.94,1.09,1.35ZM646,260.6l-.83-1,1-.83Zm-1.18-1.45-.81-1,1.19-.94.87.88Zm1.43-1.66-.62-.62.71-.57Zm.77-2.42,0-.19v-1.36l.82.7Zm1.22-.5,1.09.91-1,1-1.12-.8Zm-1.78.32V255l-.67-.78.68-.64Zm-.17.76-1,.82-.89-.9,1-1Zm1.66,1.18-.7.69-.12-1.28Zm.45.32,1.26.89-1,1.16-1.28-1.1Zm0,2.47-.82,1-.18-1.86Zm.41.36,1.29,1.1L649,262.16l-1.28-.91Zm-.14,2.58-.83.85-.14-1.54Zm.45.31,1.3.93-1.09,1.09L648,264Zm-.18,2.41-.84.85-.15-1.55Zm-.64,1.42,1.09-1.1,1.37,1-1.16,1Zm.89,1.28-.85.76-.13-1.44Zm-.53-13.81.59-.63.16,1.27Zm-.42-.35-.73-.61h1.3Zm-2.77,0-.51-.59h1.14Zm-.4.38-.68.65.17-1.25Zm-.62,5.32-.79.67.19-1.4Zm-.36,8.81.82.73H643Zm2-1.47h0l.43-5.44,0,0a.19.19,0,0,0,0-.08l.26-3.22.31,3.29h0l.25,2.7h0l.47,5h-1.9Zm3.55,1.47,1,.73h-1.86ZM644.57,251l2.18-2.19,2.33,2.19-.27.26h-4Zm.73-16.29,1.05,1L645.18,237Zm1.46,4.46-1.52-1.52,1.52-1.52,1.52,1.52Zm.4-3.41,1.06-1,.13,2.24Zm-.4-.36-1.32-1.32,1.32-1.32,1.31,1.32Zm-.39,4.15L645,241l.14-2.67Zm2.06-1.29.17,2.71-1.45-1.43Zm.44,7.17-1.72-1.65,1.53-1.51Zm.3,4.91-2-1.91,1.8-1.72Zm-1-17-.9-.89h.84Zm-3.6-6.77,2.3-2.3,2.29,2.3-1,1h-2.62Zm-.11,1.52h4.36V232h-4.36Zm1.84,4.36-.91.91,0-.91Zm.49,7.44,1.77,1.74-1.77,1.74-1.71-1.74Zm0,4.24,2,1.95-2,1.94-1.94-1.94Zm-.39,4.26-1.87,1.88.18-3.57Zm-2.52,3.39h5.83v.82h-5.83Zm-4,19.36h9.53a.27.27,0,0,0,0-.54h-8.82v-1.08h12.25v1.08h-1.43a.27.27,0,0,0,0,.54h2.26v1.07H639.86ZM635.33,284h22.79V286H635.33Zm-1.29,2.5h25.6V287H645.4a.27.27,0,0,0-.27.27.28.28,0,0,0,.27.28h14.24v1H634Zm.14,17.16h-8.61v-1.12h8.61Zm2.32-7.16,1.56-2.85.11-.09.51.81A11.05,11.05,0,0,0,636.5,296.54Zm10.33-4.63a20.43,20.43,0,0,0-2.49.24L644,291a14.7,14.7,0,0,1,3-.34v1.23A.41.41,0,0,0,646.83,291.91Zm.66,0v-1.21a15.06,15.06,0,0,1,3,.41l-.38,1A15.41,15.41,0,0,0,647.49,291.9ZM656,295l.5-.71,4.23,7.74H660A14,14,0,0,0,656,295Zm12.66,8.7h-8.61v-1.12h8.61Z" transform="translate(-0.75 -179.26)"/><path class="cls-1" d="M649.85,242.72a.28.28,0,0,0-.26.29l0,.24a.27.27,0,0,0,.27.26h0a.27.27,0,0,0,.25-.29V243A.27.27,0,0,0,649.85,242.72Z" transform="translate(-0.75 -179.26)"/><path class="cls-1" d="M649.22,233.05a.27.27,0,0,0-.25.29l.56,8.71a.27.27,0,0,0,.27.25h0a.27.27,0,0,0,.25-.29l-.56-8.71A.27.27,0,0,0,649.22,233.05Z" transform="translate(-0.75 -179.26)"/><path class="cls-1" d="M644,287.44l.09.05a.19.19,0,0,0,.1,0,.2.2,0,0,0,.11,0l.09-.05.06-.09a.36.36,0,0,0,0-.11.27.27,0,0,0-.08-.19.29.29,0,0,0-.39,0,.33.33,0,0,0-.08.19.36.36,0,0,0,0,.11Z" transform="translate(-0.75 -179.26)"/><path class="cls-1" d="M743.4,274.67h-3.55v-7.19h1a.27.27,0,0,0,.27-.27v-3a.27.27,0,0,0-.27-.27h-.29c1.62-1.46,3.34-5.54,3.13-8.77l0-.27a.66.66,0,0,1,0-.14s0,0,0,0c-.47-3.39-3.69-7.06-5.63-9a15.65,15.65,0,0,1-3.53-5.87V234.6h1.94a.27.27,0,1,0,0-.54h-1.94V232a.28.28,0,0,0-.28-.27.27.27,0,0,0-.27.27v2.11H732a.27.27,0,0,0,0,.54h1.94v5.27c-.35,3.39-2.5,5.43-4.78,7.58-2.1,2-4.26,4-4.8,7.18a9.16,9.16,0,0,0,.75,5.68v.05a.26.26,0,0,0,.13.23,10.56,10.56,0,0,0,2.75,3.34h-.42a.27.27,0,0,0-.27.27v3a.27.27,0,0,0,.27.27h1v7.19H725a.27.27,0,0,0-.27.27v9.28h-3.25v-8.9h1.31a.28.28,0,0,0,.28-.27v-3a.28.28,0,0,0-.28-.27H721.3a10.66,10.66,0,0,0,2.47-7.1c0-.07,0-.15,0-.22a.49.49,0,0,1,0-.12v0c-.39-2.78-3-5.78-4.6-7.36a12.71,12.71,0,0,1-2.86-4.76V248h1.53a.27.27,0,0,0,0-.54h-1.53v-1.67a.28.28,0,0,0-.28-.27.27.27,0,0,0-.27.27v1.67h-1.53a.26.26,0,0,0-.24.15l-3.69-10a.71.71,0,0,0-.07-.09v-2.36c.52-.42,2.73-2.36,2.25-4.82s-4.2-7.62-4.67-8.27v-5.19h1.94a.28.28,0,0,0,0-.55h-1.94v-2.11a.28.28,0,0,0-.28-.27.27.27,0,0,0-.27.27v2.11h-1.94a.28.28,0,0,0,0,.55h1.94v5.22c-.25.52-.61,1.12-1,1.81a40.05,40.05,0,0,0-2.92,5.67,4.26,4.26,0,0,0,2.22,5.62v2.39h0l-4.39,11a13,13,0,0,1-2.58-4.46v-4.2h1.53a.29.29,0,0,0,.28-.28.28.28,0,0,0-.28-.27h-1.53v-1.67a.27.27,0,1,0-.54,0v1.67h-1.54a.27.27,0,0,0-.27.27.28.28,0,0,0,.27.28H698v4.24c-.29,2.74-2,4.39-3.89,6.14s-3.48,3.29-3.92,5.88a8.27,8.27,0,0,0-.12,1.61v.09a7.53,7.53,0,0,0,.73,2.95v0a.24.24,0,0,0,.12.21,8.53,8.53,0,0,0,2.14,2.64h-.39a.27.27,0,0,0-.27.27v9.55h-1.31a.27.27,0,0,0-.28.27v3a.27.27,0,0,0,.28.27h1.31v8.9H689.8v-1.44a.27.27,0,0,0-.27-.27H686V277h1a.27.27,0,0,0,.27-.27v-3a.27.27,0,0,0-.27-.27h-.29c1.62-1.46,3.34-5.54,3.13-8.77l0-.27a.66.66,0,0,1,0-.14s0,0,0,0c-.47-3.39-3.69-7.06-5.63-9a15.65,15.65,0,0,1-3.53-5.87v-5.24h1.94a.27.27,0,1,0,0-.54h-1.94V241.5a.28.28,0,0,0-.55,0v2.11H678.1a.27.27,0,0,0,0,.54H680v5.27c-.35,3.39-2.5,5.43-4.78,7.58-2.1,2-4.26,4-4.8,7.18a9.23,9.23,0,0,0,.75,5.68v.05a.26.26,0,0,0,.13.23,10.69,10.69,0,0,0,2.75,3.34h-.42a.27.27,0,0,0-.27.27v3a.27.27,0,0,0,.27.27h1v7.19H671.1a.27.27,0,0,0-.27.27V304a.28.28,0,0,0,.27.28h72.3a.28.28,0,0,0,.27-.28v-29.1A.27.27,0,0,0,743.4,274.67Zm-3.86-10.74h-2a4.48,4.48,0,0,1,2.2-3.16,7.72,7.72,0,0,0,3.29-3.28C742.43,260.67,740.59,263.66,739.54,263.93Zm-5.86,0c-.1-.65-.19-2.82,2.53-4.9,3.19-2.44,4.8-5.54,4.72-9a11.5,11.5,0,0,1,2.16,4.87c.18,1.78-1.56,4.38-3.64,5.39a5,5,0,0,0-2.51,3.65Zm-5.21-.29c-.19-.39-1.28-3.1,3.68-6.57,5.22-3.65,6-8.31,5.88-10.54a30.07,30.07,0,0,1,2.31,2.67c.38,3.68-1.12,6.84-4.46,9.4-2.83,2.16-2.86,4.47-2.75,5.33h-4.26Zm-3.61-8.92c.51-3,2.52-4.87,4.64-6.87s4.12-3.89,4.79-6.89q.26.61.54,1.17c-.38,5.56-2.43,9.64-6,11.81a7.94,7.94,0,0,0-3.68,5.27A9,9,0,0,1,724.86,254.72Zm2.06,7.45a.2.2,0,0,0,0-.07c0-.15-.43-3.55,4.19-6.55a12.5,12.5,0,0,0,4.11-4,.28.28,0,0,0-.1-.37.27.27,0,0,0-.37.1,12.12,12.12,0,0,1-3.94,3.86c-3.71,2.4-4.36,5.11-4.44,6.37a8.56,8.56,0,0,1-.75-1.26,7.45,7.45,0,0,1,3.54-5.8c3.49-2.16,5.6-6.09,6.13-11.4a16.19,16.19,0,0,0,2.08,2.86c.48,1.95-.25,7-5.54,10.76-3.93,2.74-4.29,5.12-4.11,6.38A11,11,0,0,1,726.92,262.17Zm.89,2.31h12.75v1.13H734a.28.28,0,0,0,0,.55h6.55v.78H727.81Zm1.26,3H739.3v7.19h-.73v-6a.28.28,0,0,0-.28-.28.27.27,0,0,0-.27.28v6h-7.8v-3.59a.28.28,0,0,0-.27-.28.29.29,0,0,0-.28.28v3.59h-.6Zm-.28,7.73h14.33v.63h-17a.27.27,0,1,0,0,.54h17v3.12H725.24v-1.35h8.94a.28.28,0,0,0,.28-.27.29.29,0,0,0-.28-.28h-8.94v-2.39Zm-7.89,9H720v-6.85a.27.27,0,0,0-.54,0v6.85h-7.37V280a.27.27,0,1,0-.54,0v4.25h-.88v-8.9H720.9Zm1.59-9.44H709.08v-.42h6.25a.28.28,0,0,0,0-.55h-6.25v-.5h8.4a.27.27,0,1,0,0-.54h-8.4v-.46h13.41ZM716,253.49l0-.09s0-.09,0-.14c.12.29.25.56.37.81-.3,4.5-2,7.81-4.81,9.57a6.47,6.47,0,0,0-3,4.15,7.24,7.24,0,0,1-.21-3.47c.41-2.4,2-3.94,3.76-5.57C713.78,257.27,715.39,255.73,716,253.49Zm-4.09,10.61c2.83-1.75,4.55-4.9,5-9.17a13.12,13.12,0,0,0,1.61,2.19c.38,1.59-.21,5.71-4.5,8.7-3.09,2.17-3.49,4.06-3.38,5.13a7.75,7.75,0,0,1-1.6-2.15A6,6,0,0,1,711.93,264.1Zm8.34,4.7a4.11,4.11,0,0,0-2.08,3h-2.57c-.07-.57-.09-2.27,2-3.91a8.87,8.87,0,0,0,3.87-7.21,9.12,9.12,0,0,1,1.66,3.81C723.34,265.9,721.94,268,720.27,268.8Zm-2.93-1.37c-2.27,1.74-2.34,3.59-2.26,4.34h-1.74a3.38,3.38,0,0,1,1.72-3.79,11.75,11.75,0,0,0,2.21-1.58.28.28,0,1,0-.38-.4,11,11,0,0,1-2.1,1.51,3.94,3.94,0,0,0-2,4.26h-1.11l-.3-.21c-.14-.3-1-2.5,3-5.29,4.18-2.92,4.9-6.63,4.82-8.51a26.37,26.37,0,0,1,1.78,2.07C721.26,262.8,720.05,265.36,717.34,267.43Zm3,4.34h-1.6a3.51,3.51,0,0,1,1.75-2.48,6.21,6.21,0,0,0,2.55-2.43C722.56,269.31,721.16,271.55,720.35,271.77ZM714.19,248h1.53v4.24a.68.68,0,0,1,0,.14l-1.62-4.4ZM706,235.25h3.6v2.13H706Zm-2.25-5.52a39,39,0,0,1,2.88-5.59c.33-.55.63-1,.87-1.51.91,1.28,4,5.63,4.37,7.76s-1.68,4-2.09,4.32h-4A3.72,3.72,0,0,1,703.79,229.73Zm2.13,8.2h3.89l5.69,15.44c-.59,2.08-2.09,3.5-3.66,5-1.72,1.61-3.49,3.28-3.93,5.87a7.63,7.63,0,0,0,.61,4.65v0a.27.27,0,0,0,.12.22,8.93,8.93,0,0,0,2.14,2.64h-2a.27.27,0,0,0-.27.27V273a.19.19,0,0,0,0,.08.24.24,0,0,0,0,.08v1.93a.27.27,0,0,0,.27.27h1.32v8.9h-3.56a.27.27,0,0,0-.27.27v1.44h-2.59V277H705a.27.27,0,0,0,.27-.27v-3a.27.27,0,0,0-.27-.27h-1.31v-9.55a.28.28,0,0,0-.18-.25,10.65,10.65,0,0,0,2.5-7.12l0-.21a.57.57,0,0,0,0-.13,0,0,0,0,0,0,0c-.28-2.07-1.81-4.26-3.24-5.9h0c-.44-.5-.86-.94-1.23-1.32Zm-8,25.73c-.08-.57-.09-2.26,2-3.9a8.91,8.91,0,0,0,3.87-7.21,9.22,9.22,0,0,1,1.66,3.8c.14,1.44-1.27,3.53-2.94,4.34a4.09,4.09,0,0,0-2.07,3Zm-4.24-.21c-.17-.35-1-2.51,3-5.28,4.17-2.92,4.9-6.63,4.81-8.51.3.31.58.61.84.92a10.44,10.44,0,0,1-2.83,6.74.27.27,0,1,0,.38.39,10.64,10.64,0,0,0,3-6.53c.15.18.3.37.43.55.31,3-.91,5.53-3.61,7.6-2.27,1.73-2.35,3.58-2.27,4.33h-3.39Zm9.12-2.27a6.38,6.38,0,0,0,2.55-2.42c-.5,2.45-1.89,4.68-2.7,4.9H701A3.55,3.55,0,0,1,702.76,261.18Zm-12.16-3.36a11.48,11.48,0,0,1,2.24-3.2.27.27,0,1,0-.38-.39,11,11,0,0,0-1.79,2.3l0-.31c.42-2.41,2-4,3.77-5.57s3.29-3.12,3.88-5.49c.12.28.24.55.37.81-.31,4.5-2,7.8-4.82,9.56a6.49,6.49,0,0,0-3,4.13A7,7,0,0,1,690.6,257.82Zm.73,2.84a6,6,0,0,1,2.86-4.66c2.82-1.75,4.54-4.91,5-9.17a12.91,12.91,0,0,0,1.62,2.19c.38,1.59-.22,5.7-4.5,8.7-3.08,2.15-3.49,4-3.39,5.11A8,8,0,0,1,691.33,260.66Zm1.6,3.55h10.23v9.27h-1.07v-6.84a.27.27,0,1,0-.54,0v6.84h-7.17v-3.05a.27.27,0,0,0-.27-.27.28.28,0,0,0-.28.27v3.05h-.9ZM691.34,274h13.41v2.47H691.34Zm1.59,3h10.23v8.9h-.81v-6.16a.27.27,0,1,0-.54,0v6.16H695V283a.27.27,0,1,0-.54,0v2.9h-.7v-5.3a.27.27,0,1,0-.54,0v5.3h-.32Zm-2.14,9.45v7.79a.28.28,0,0,0,.55,0v-7.79h11.12v4.43a.27.27,0,0,0,.27.27.28.28,0,0,0,.28-.27v-4.43h3.29v17.29h-.68V291.09a.27.27,0,0,0-.54,0v12.68h-1.37v-7a5.67,5.67,0,0,0-11.33,0v7H689.8V286.48Zm-5.12-13h-2a4.48,4.48,0,0,1,2.2-3.16,7.72,7.72,0,0,0,3.29-3.28C688.56,270.22,686.72,273.21,685.67,273.48Zm-3.84,0a5,5,0,0,1,2.61-4.2.28.28,0,0,0,.1-.37.26.26,0,0,0-.37-.1,5.54,5.54,0,0,0-2.89,4.67h-1.47c-.1-.65-.19-2.82,2.53-4.9,3.19-2.44,4.8-5.54,4.72-9a11.5,11.5,0,0,1,2.16,4.87c.18,1.79-1.56,4.38-3.63,5.39a5,5,0,0,0-2.52,3.65Zm-7.23-.29c-.19-.39-1.28-3.1,3.68-6.57,5.22-3.65,6-8.31,5.88-10.55a31.63,31.63,0,0,1,2.31,2.68c.38,3.67-1.12,6.84-4.46,9.4-2.83,2.16-2.86,4.47-2.75,5.33H675Zm-3.6-8.92c.5-3,2.51-4.87,4.63-6.87s4.12-3.89,4.79-6.89q.26.62.54,1.17c-.38,5.56-2.43,9.64-6,11.81a7.88,7.88,0,0,0-3.67,5.27A8.82,8.82,0,0,1,671,264.27Zm.76,5.49a7.45,7.45,0,0,1,3.54-5.8c3.49-2.16,5.6-6.09,6.13-11.4a17.27,17.27,0,0,0,1,1.54,14.56,14.56,0,0,1-2.51,7.39.27.27,0,0,0,.06.38.24.24,0,0,0,.16.05.29.29,0,0,0,.22-.11,14.73,14.73,0,0,0,2.57-7.07c.23.28.43.51.58.67.48,2-.25,7.06-5.54,10.77-3.93,2.74-4.29,5.12-4.11,6.38A9.85,9.85,0,0,1,671.76,269.76Zm2.18,6.36H679a.27.27,0,1,0,0-.54h-5.07V275h9.84a.28.28,0,0,0,.27-.28.27.27,0,0,0-.27-.27h-9.84V274h12.75v2.47H673.94Zm1.26.91h10.23v7.19h-1.25v-6a.27.27,0,1,0-.54,0v6h-7v-2.49a.27.27,0,0,0-.27-.27.28.28,0,0,0-.28.27v2.49h-.88Zm-3.83,7.73h1.74v8.55a.28.28,0,1,0,.55,0v-8.55h2v6.58a.27.27,0,0,0,.27.27.28.28,0,0,0,.28-.27v-6.58h2.26v9.64a.28.28,0,0,0,.55,0v-9.64h2.26v7.68a.28.28,0,0,0,.28.27.27.27,0,0,0,.27-.27v-7.68h2.46v3.16a.27.27,0,0,0,.54,0v-3.16h1.86v4.68a.27.27,0,1,0,.54,0v-4.68h2v1.36a.24.24,0,0,0,0,.08v17.57h-1.47c0-.13,0-.26,0-.39a7.12,7.12,0,1,0-14.24,0c0,.13,0,.26,0,.39h-2.2Zm2.73,19c0-.13,0-.26,0-.39a6.58,6.58,0,0,1,13.16,0c0,.13,0,.26,0,.39Zm18.83,0v-7a5.12,5.12,0,1,1,10.23,0v7Zm13.92-17.57v-1.44h1.81v10.77a.28.28,0,0,0,.55,0V284.76h1.45V293a.27.27,0,0,0,.27.27.28.28,0,0,0,.28-.27v-8.22h7.44v7.15a.27.27,0,0,0,.54,0v-7.15h1.71V290a.29.29,0,0,0,.28.28.28.28,0,0,0,.27-.28v-5.19h1.3V296a.27.27,0,0,0,.54,0V284.76h1.41v19h-1.81c0-.13,0-.26,0-.39a7.13,7.13,0,1,0-14.25,0c0,.13,0,.26,0,.39h-1.83Zm2.37,17.57c0-.13,0-.26,0-.39a6.58,6.58,0,0,1,13.16,0c0,.13,0,.26,0,.39Zm19.85,0v-6.36a5.12,5.12,0,1,1,10.23,0v6.36Zm14,0h-3.27v-6.36a5.67,5.67,0,0,0-11.33,0v6.36h-3.25V284.49a.27.27,0,0,0,0-.12V280h1.89v8.55a.27.27,0,1,0,.54,0V280h2v6.58a.28.28,0,0,0,.28.27.27.27,0,0,0,.27-.27V280h2.27v9.64a.27.27,0,1,0,.54,0V280h2.27v7.67a.27.27,0,1,0,.54,0V280h2.46v3.16a.28.28,0,0,0,.55,0V280h1.85v4.68a.27.27,0,1,0,.54,0V280h1.88Z" transform="translate(-0.75 -179.26)"/><path class="cls-1" d="M695.65,284.65h4.8a.27.27,0,0,0,.27-.27V282a2.67,2.67,0,1,0-5.34,0v2.4A.27.27,0,0,0,695.65,284.65Zm.27-2.67a2.13,2.13,0,0,1,4.26,0v2.13h-4.26Z" transform="translate(-0.75 -179.26)"/><path class="cls-1" d="M731.78,273.75h4.81a.27.27,0,0,0,.27-.27v-2.4a2.68,2.68,0,1,0-5.35,0v2.4A.27.27,0,0,0,731.78,273.75Zm.28-2.67a2.13,2.13,0,1,1,4.25,0v2.12h-4.25Z" transform="translate(-0.75 -179.26)"/><path class="cls-1" d="M695.64,271.72h4.8a.29.29,0,0,0,.28-.28V269a2.68,2.68,0,0,0-5.35,0v2.4A.28.28,0,0,0,695.64,271.72Zm.27-2.68a2.13,2.13,0,0,1,4.26,0v2.13h-4.26Z" transform="translate(-0.75 -179.26)"/><path class="cls-1" d="M677.66,283.3h4.8a.28.28,0,0,0,.28-.27v-2.4a2.68,2.68,0,1,0-5.35,0V283A.27.27,0,0,0,677.66,283.3Zm.27-2.67a2.13,2.13,0,0,1,4.26,0v2.12h-4.26Z" transform="translate(-0.75 -179.26)"/><path class="cls-1" d="M713.39,282.44h4.8a.27.27,0,0,0,.27-.27v-2.4a2.68,2.68,0,0,0-5.35,0v2.4A.28.28,0,0,0,713.39,282.44Zm.27-2.67a2.13,2.13,0,0,1,4.26,0v2.13h-4.26Z" transform="translate(-0.75 -179.26)"/><path class="cls-1" d="M673.66,294.76v-.09a.28.28,0,0,0-.55,0v.09a.28.28,0,0,0,.55,0Z" transform="translate(-0.75 -179.26)"/><path class="cls-1" d="M687,291.55a.27.27,0,0,0,.27-.27v-.37a.27.27,0,1,0-.54,0v.37A.27.27,0,0,0,687,291.55Z" transform="translate(-0.75 -179.26)"/><path class="cls-1" d="M727.4,289.68a.27.27,0,0,0-.27.27V290a.27.27,0,1,0,.54,0V290A.27.27,0,0,0,727.4,289.68Z" transform="translate(-0.75 -179.26)"/><path class="cls-1" d="M741,285.92a.27.27,0,0,0-.27.27v.37a.27.27,0,0,0,.54,0v-.37A.27.27,0,0,0,741,285.92Z" transform="translate(-0.75 -179.26)"/><path class="cls-1" d="M694,269.6l.11,0a.27.27,0,0,0,.27-.27.36.36,0,0,0,0-.11.47.47,0,0,0-.06-.09.33.33,0,0,0-.3-.06l-.08.06a.25.25,0,0,0-.09.2.25.25,0,0,0,.09.19Z" transform="translate(-0.75 -179.26)"/><path class="cls-1" d="M676.16,280.68a.29.29,0,0,0,.19.08.3.3,0,0,0,.2-.08.26.26,0,0,0,.08-.19.27.27,0,0,0-.08-.19.29.29,0,0,0-.39,0,.27.27,0,0,0-.08.19.3.3,0,0,0,0,.1A.35.35,0,0,0,676.16,280.68Z" transform="translate(-0.75 -179.26)"/><path class="cls-1" d="M719.34,272.77h-.42a.27.27,0,0,0,0,.54h.42a.27.27,0,1,0,0-.54Z" transform="translate(-0.75 -179.26)"/><path class="cls-1" d="M684.82,275h.33a.28.28,0,0,0,.27-.28.27.27,0,0,0-.27-.27h-.33a.27.27,0,0,0-.27.27A.28.28,0,0,0,684.82,275Z" transform="translate(-0.75 -179.26)"/><path class="cls-1" d="M733,266.14l.1,0a.26.26,0,0,0,.19-.08.24.24,0,0,0,.06-.09.19.19,0,0,0,0-.1.25.25,0,0,0-.09-.2l-.08-.05a.26.26,0,0,0-.21,0l-.09.05s0,.05-.06.09a.43.43,0,0,0,0,.11.27.27,0,0,0,.08.19Z" transform="translate(-0.75 -179.26)"/><path class="cls-1" d="M679.77,276a.27.27,0,0,0,.19.08.28.28,0,0,0,.2-.08.35.35,0,0,0,.06-.09.26.26,0,0,0,0-.2.35.35,0,0,0-.06-.09.27.27,0,0,0-.39,0,.35.35,0,0,0-.06.09.26.26,0,0,0,0,.2Z" transform="translate(-0.75 -179.26)"/><path class="cls-1" d="M678.37,263.79a.3.3,0,0,0,.18-.06l.36-.31a.28.28,0,1,0-.37-.41l-.34.3a.28.28,0,0,0,0,.38A.32.32,0,0,0,678.37,263.79Z" transform="translate(-0.75 -179.26)"/><path class="cls-1" d="M693.84,253.78a.23.23,0,0,0,.14,0l.25-.14a.27.27,0,0,0,.12-.36.27.27,0,0,0-.37-.12l-.28.15a.28.28,0,0,0,.14.51Z" transform="translate(-0.75 -179.26)"/><path class="cls-1" d="M699,258.34a.3.3,0,0,0,.18-.06.29.29,0,0,0,.05-.39.28.28,0,0,0-.39,0h0a.26.26,0,0,0,.16.48Z" transform="translate(-0.75 -179.26)"/><path class="cls-1" d="M709.61,241l4.13,11.32a.28.28,0,0,0,.26.18l.09,0a.27.27,0,0,0,.16-.35l-4.13-11.32a.27.27,0,0,0-.35-.16A.27.27,0,0,0,709.61,241Z" transform="translate(-0.75 -179.26)"/><path class="cls-1" d="M709.13,239.69a.27.27,0,0,0,.25.18l.1,0a.27.27,0,0,0,.16-.35l-.23-.63a.27.27,0,1,0-.51.19Z" transform="translate(-0.75 -179.26)"/><path class="cls-1" d="M710,232.39a.28.28,0,0,0,0,.39.27.27,0,0,0,.19.08.25.25,0,0,0,.19-.09c1.78-1.84-1.26-6.63-1.39-6.83a.27.27,0,0,0-.46.29C709.41,227.51,711.27,231.12,710,232.39Z" transform="translate(-0.75 -179.26)"/><path class="cls-1" d="M718.47,263.94a.25.25,0,0,0-.31.22,2.28,2.28,0,0,1-.21.53.27.27,0,0,0,.24.4.27.27,0,0,0,.24-.14,2.72,2.72,0,0,0,.27-.71A.26.26,0,0,0,718.47,263.94Z" transform="translate(-0.75 -179.26)"/><path class="cls-1" d="M735.67,249.83h.06a.28.28,0,0,0,.26-.21,2.93,2.93,0,0,0,.09-.64.27.27,0,0,0-.27-.27h0a.27.27,0,0,0-.27.27,3.74,3.74,0,0,1-.08.52A.27.27,0,0,0,735.67,249.83Z" transform="translate(-0.75 -179.26)"/><path class="cls-1" d="M404.62,253.68h0a.26.26,0,0,0,.27-.24L405,253a.28.28,0,0,0-.24-.3.26.26,0,0,0-.3.23l-.07.5A.28.28,0,0,0,404.62,253.68Z" transform="translate(-0.75 -179.26)"/><path class="cls-1" d="M383.64,267.92h0a.27.27,0,0,0,.27-.24l.1-.91a.27.27,0,1,0-.54-.06l-.1.91A.27.27,0,0,0,383.64,267.92Z" transform="translate(-0.75 -179.26)"/><path class="cls-1" d="M381.06,290.76h0a.26.26,0,0,0,.27-.24l2.3-20.36a.27.27,0,0,0-.54-.06l-2.3,20.36A.27.27,0,0,0,381.06,290.76Z" transform="translate(-0.75 -179.26)"/><path class="cls-1" d="M404.36,239.49l-.69-.08a.27.27,0,1,0-.05.54l.68.08h0a.28.28,0,0,0,.27-.25A.27.27,0,0,0,404.36,239.49Z" transform="translate(-0.75 -179.26)"/><path class="cls-1" d="M398.71,295.86l-.32,0a.27.27,0,0,0-.31.23.29.29,0,0,0,.24.31l.32,0h0a.27.27,0,0,0,0-.54Z" transform="translate(-0.75 -179.26)"/><path class="cls-1" d="M407.56,260.16h0l2-17.63a.27.27,0,0,0-.24-.3l-3.07-.37.6-5.11h0l.31-2.65a.28.28,0,0,0-.24-.3l-14.73-1.86a.28.28,0,0,0-.2.05.29.29,0,0,0-.11.18l-.17,1.37h0l-.8,6.47-2.77-.33a.28.28,0,0,0-.3.24L382,292.48l-1.17-.15a.27.27,0,0,0-.3.24L379,303.77h-4.93a.27.27,0,0,0-.27.27.28.28,0,0,0,.27.28h30.17a.27.27,0,0,0,.27-.25l.86-8.48a.27.27,0,0,0-.24-.3l-1.57-.19,1-8.31h0l3.06-26.62Zm-8.25-.55,7.68.77-.88,7.63-2.88-.32.71-5.62a.27.27,0,0,0-.54-.07l-.71,5.62-2.83-.32.59-4.74a.27.27,0,0,0-.23-.3.27.27,0,0,0-.31.23l-.6,4.75-3-.34.83-6.58a.27.27,0,0,0-.54-.07l-.83,6.59-3-.34.44-3.54a.28.28,0,0,0-.23-.31.27.27,0,0,0-.31.24l-.45,3.55-3-.33L390,260a.27.27,0,0,0-.23-.3.27.27,0,0,0-.31.24l-.76,6.11-3.14-.36.95-8.58,20.6,2.32-.05.41-7.69-.78a.28.28,0,0,0-.05.55ZM405,277.32l-2.85-.32.7-5.61a.27.27,0,1,0-.54-.07l-.7,5.62-2.84-.32.6-4.74a.27.27,0,0,0-.24-.3.25.25,0,0,0-.3.23l-.6,4.75-3-.34.83-6.58a.28.28,0,0,0-.23-.31.27.27,0,0,0-.31.24l-.83,6.59-3-.34.45-3.55a.28.28,0,0,0-.24-.3.26.26,0,0,0-.3.23l-.45,3.56-3-.34.77-6.1a.27.27,0,0,0-.24-.3.26.26,0,0,0-.3.23l-.77,6.11-3.13-.35,1-8.78,3.4.39h0l17.16,1.93ZM404,286.46l-2.85-.32.71-5.62a.27.27,0,0,0-.24-.3.26.26,0,0,0-.3.23l-.71,5.63-2.84-.32.6-4.75a.27.27,0,0,0-.54-.06l-.6,4.75-3-.35.83-6.58a.28.28,0,0,0-.24-.3.25.25,0,0,0-.3.23l-.83,6.59-3-.33.45-3.55a.28.28,0,0,0-.24-.31.27.27,0,0,0-.3.24l-.45,3.56-3-.34.76-6.1a.28.28,0,0,0-.23-.31.27.27,0,0,0-.31.24l-.77,6.11-3.1-.35,1-8.6,3.39.38h0L405,277.86Zm-16.46-38.59,17.46,2h0l3.17.36-1,8.69-2.88-.32.5-4a.27.27,0,0,0-.24-.3.26.26,0,0,0-.3.24l-.5,4-2.84-.32.6-4.75a.27.27,0,0,0-.54-.06l-.6,4.74-3-.34.82-6.58a.26.26,0,0,0-.23-.3.27.27,0,0,0-.31.23l-.83,6.59-3-.33.45-3.55a.28.28,0,0,0-.24-.31.27.27,0,0,0-.3.24l-.45,3.55-3-.33.77-6.1a.28.28,0,0,0-.24-.31.27.27,0,0,0-.3.24l-.77,6.11-3.17-.36Zm4.12-9.19,10,1.06h0a.26.26,0,0,0,.27-.24.27.27,0,0,0-.24-.3l-10-1.06.17-1.37,8.29,1h0a.27.27,0,0,0,0-.54l-8.28-1,.29-2.35,12,1.59h0a.28.28,0,0,0,.27-.24.27.27,0,0,0-.24-.3l-12-1.59.1-.83,14.19,1.8-.24,2.11-8.87-1a.27.27,0,1,0-.07.54L406.3,237l-.56,4.84-14.26-1.72Zm-3.27,1.58,2.76.33h0L406,242.37h0l3.07.37-.8,6.92-2.89-.33.7-5.61a.28.28,0,0,0-.23-.31.27.27,0,0,0-.31.24l-.71,5.62L402,249l.59-4.74a.27.27,0,0,0-.23-.31.28.28,0,0,0-.31.24l-.59,4.75-3-.34.83-6.59a.27.27,0,1,0-.54-.06l-.83,6.59-3-.34.44-3.55a.26.26,0,0,0-.23-.3.27.27,0,0,0-.31.23l-.44,3.56-3-.34.76-6.1a.26.26,0,0,0-.23-.3.27.27,0,0,0-.31.23l-.76,6.11-3.19-.36Zm.81,60.87-.27,2.64h-5.1l.32-3.15a2.54,2.54,0,0,1,5.06.25A2.35,2.35,0,0,1,389.19,301.13Zm5.51,2.64.22-2.2a2.55,2.55,0,0,1,2.79-2.27,2.52,2.52,0,0,1,2.28,2.52,2.35,2.35,0,0,1,0,.26l-.17,1.69Zm9.27,0h-3.62l.17-1.64c0-.1,0-.21,0-.31a3.09,3.09,0,0,0-6.16-.31l-.23,2.26h-4.69l.27-2.58c0-.11,0-.22,0-.32a3.07,3.07,0,0,0-2.78-3.06,3,3,0,0,0-2.25.67,3,3,0,0,0-1.12,2.08l-.33,3.21h-3.74l1.34-9.57,15.56,1.92h0a.28.28,0,0,0,.27-.24.29.29,0,0,0-.24-.31l-15.56-1.92.11-.75,1.08.13.09,0,21,2.55h.05l1.52.18Zm-3.84-9.09.73-5.82a.28.28,0,0,0-.23-.31.27.27,0,0,0-.31.24l-.73,5.83-2.83-.35.61-4.92a.26.26,0,0,0-.23-.3.26.26,0,0,0-.31.23l-.62,4.93-3-.37.85-6.73a.28.28,0,0,0-.24-.31.27.27,0,0,0-.3.24l-.85,6.73-3-.36.46-3.67a.26.26,0,0,0-.23-.3.28.28,0,0,0-.31.23l-.46,3.67-3-.36a.25.25,0,0,1,0-.07l.76-6.12a.26.26,0,0,0-.23-.3.27.27,0,0,0-.31.23l-.76,6.13s0,0,0,.06l-3.05-.37.87-7.85L403.92,287l-.92,8Z" transform="translate(-0.75 -179.26)"/><path class="cls-1" d="M398.22,259l-.3,0a.28.28,0,0,0-.3.24.29.29,0,0,0,.25.3l.3,0h0a.27.27,0,0,0,0-.54Z" transform="translate(-0.75 -179.26)"/><path class="cls-1" d="M523.38,254.81l-4.77-6.44a.28.28,0,0,0-.44,0l-4.77,6.44h0a.3.3,0,0,0,0,.15V304a.28.28,0,0,0,.27.28h9.54a.29.29,0,0,0,.28-.28V255A.25.25,0,0,0,523.38,254.81Zm-1.68,49V280.64a.27.27,0,1,0-.54,0v23.13h-1.22v-7.11a.28.28,0,0,0-.27-.28.29.29,0,0,0-.28.28v7.11h-5.5V289.89h1.92a.27.27,0,0,0,0-.54h-1.92v-2.74H517a.27.27,0,0,0,0-.54h-3.13V255.24h5.19a.27.27,0,1,0,0-.54h-4.92l3.5-4.73,2.05,2.65a.32.32,0,0,0,.22.1.25.25,0,0,0,.16-.06.26.26,0,0,0,0-.38L518,249.52l.39-.53,4.5,6.07v8.76h-4.5a.27.27,0,0,0,0,.54h4.5v2H516a.28.28,0,0,0-.28.27.29.29,0,0,0,.28.28h6.88v2.22h-2.11a.27.27,0,0,0-.27.27.28.28,0,0,0,.27.28h2.11v34.11Z" transform="translate(-0.75 -179.26)"/><path class="cls-1" d="M519.93,255.24h.29a.27.27,0,1,0,0-.54h-.29a.27.27,0,0,0,0,.54Z" transform="translate(-0.75 -179.26)"/><path class="cls-1" d="M521.43,277.31a.27.27,0,0,0-.27.28v.4a.27.27,0,1,0,.54,0v-.4A.27.27,0,0,0,521.43,277.31Z" transform="translate(-0.75 -179.26)"/><path class="cls-1" d="M519.67,294.45a.28.28,0,0,0-.28.27v.43a.29.29,0,0,0,.28.28.28.28,0,0,0,.27-.28v-.43A.27.27,0,0,0,519.67,294.45Z" transform="translate(-0.75 -179.26)"/><path class="cls-1" d="M590,215.76a1.82,1.82,0,0,0-.89.23,2.6,2.6,0,0,0-2.08-1.05,2.5,2.5,0,0,0-1,.21,4.91,4.91,0,0,0-9.46-.74,3.39,3.39,0,0,0-4.74,3.12,3.08,3.08,0,0,0,.1.8.27.27,0,0,0,.26.2h19.13a.28.28,0,0,0,.23-.13,1.77,1.77,0,0,0-1.54-2.64Zm1.14,2.23H572.44a2.38,2.38,0,0,1,0-.46,2.86,2.86,0,0,1,2.85-2.85,2.76,2.76,0,0,1,1.38.36.28.28,0,0,0,.4-.17,4.36,4.36,0,0,1,8.54.72.27.27,0,0,0,.15.22.29.29,0,0,0,.27,0,2,2,0,0,1,1.08-.32,2,2,0,0,1,1.77,1,.3.3,0,0,0,.19.14.31.31,0,0,0,.23-.06,1.16,1.16,0,0,1,.78-.29,1.23,1.23,0,0,1,1.22,1.23A1.39,1.39,0,0,1,591.18,218Z" transform="translate(-0.75 -179.26)"/><path class="cls-1" d="M579.78,219h-8.89a.27.27,0,1,0,0,.54h8.89a.27.27,0,1,0,0-.54Z" transform="translate(-0.75 -179.26)"/><path class="cls-1" d="M569.06,219h-.12a.27.27,0,1,0,0,.54h.12a.27.27,0,0,0,0-.54Z" transform="translate(-0.75 -179.26)"/><path class="cls-1" d="M440.61,205.13a1.69,1.69,0,0,0-.88.24,2.61,2.61,0,0,0-2.09-1.05,2.67,2.67,0,0,0-1,.2,4.9,4.9,0,0,0-9.46-.73,3.25,3.25,0,0,0-1.34-.28,3.4,3.4,0,0,0-3.4,3.4,3.19,3.19,0,0,0,.1.8.27.27,0,0,0,.26.2h19.13a.27.27,0,0,0,.24-.14,1.83,1.83,0,0,0,.22-.86A1.78,1.78,0,0,0,440.61,205.13Zm1.14,2.24H423a3.73,3.73,0,0,1,0-.46,2.86,2.86,0,0,1,2.86-2.86,2.83,2.83,0,0,1,1.37.36.26.26,0,0,0,.24,0,.25.25,0,0,0,.16-.17,4.36,4.36,0,0,1,8.55.72.28.28,0,0,0,.15.22.27.27,0,0,0,.26,0,2.08,2.08,0,0,1,1.08-.31,2,2,0,0,1,1.78,1,.26.26,0,0,0,.19.13.29.29,0,0,0,.22-.06,1.2,1.2,0,0,1,.78-.28,1.23,1.23,0,0,1,1.23,1.23A1.22,1.22,0,0,1,441.75,207.37Z" transform="translate(-0.75 -179.26)"/><path class="cls-1" d="M430.35,208.41h-8.89a.27.27,0,0,0-.27.27.28.28,0,0,0,.27.28h8.89a.28.28,0,0,0,.27-.28A.27.27,0,0,0,430.35,208.41Z" transform="translate(-0.75 -179.26)"/><path class="cls-1" d="M419.63,208.41h-.12a.27.27,0,0,0-.27.27.28.28,0,0,0,.27.28h.12a.28.28,0,0,0,.27-.28A.27.27,0,0,0,419.63,208.41Z" transform="translate(-0.75 -179.26)"/><path class="cls-1" d="M496.34,183.9a1.69,1.69,0,0,0-.88.24,2.6,2.6,0,0,0-2.09-1.06,2.46,2.46,0,0,0-1,.21,4.91,4.91,0,0,0-9.47-.73,3.25,3.25,0,0,0-1.34-.28,3.4,3.4,0,0,0-3.4,3.4,3.06,3.06,0,0,0,.1.79.28.28,0,0,0,.27.21h19.12a.27.27,0,0,0,.24-.14,1.72,1.72,0,0,0,.22-.86A1.78,1.78,0,0,0,496.34,183.9Zm1.14,2.23H478.75a2.28,2.28,0,0,1,0-.45,2.86,2.86,0,0,1,2.85-2.86,2.9,2.9,0,0,1,1.38.36.24.24,0,0,0,.23,0,.24.24,0,0,0,.16-.18,4.36,4.36,0,0,1,8.55.73.25.25,0,0,0,.15.21.24.24,0,0,0,.26,0,2.08,2.08,0,0,1,1.08-.31,2,2,0,0,1,1.78,1,.26.26,0,0,0,.19.13.29.29,0,0,0,.22-.06,1.23,1.23,0,0,1,2,1A1.17,1.17,0,0,1,497.48,186.13Z" transform="translate(-0.75 -179.26)"/><path class="cls-1" d="M486.08,187.18h-8.89a.27.27,0,0,0,0,.54h8.89a.27.27,0,0,0,0-.54Z" transform="translate(-0.75 -179.26)"/><path class="cls-1" d="M475.36,187.18h-.11a.27.27,0,1,0,0,.54h.11a.27.27,0,1,0,0-.54Z" transform="translate(-0.75 -179.26)"/><path class="cls-1" d="M682.2,204.73H668.54a.28.28,0,0,1-.26-.21,2.33,2.33,0,0,1-.08-.59,2.51,2.51,0,0,1,2.51-2.5,2.58,2.58,0,0,1,.91.17,3.58,3.58,0,0,1,6.86.52,2,2,0,0,1,2.17.61,1.43,1.43,0,0,1,.61-.14,1.34,1.34,0,0,1,1.34,1.34,1.38,1.38,0,0,1-.17.66A.29.29,0,0,1,682.2,204.73Zm-13.44-.55H682a.69.69,0,0,0,0-.25.8.8,0,0,0-.8-.8.78.78,0,0,0-.51.19.29.29,0,0,1-.22.06.3.3,0,0,1-.19-.14,1.38,1.38,0,0,0-1.2-.69,1.35,1.35,0,0,0-.73.21.27.27,0,0,1-.26,0,.26.26,0,0,1-.15-.22,3,3,0,0,0-6-.5.28.28,0,0,1-.4.17,1.94,1.94,0,0,0-.94-.25,2,2,0,0,0-2,2A2.09,2.09,0,0,0,668.76,204.18Z" transform="translate(-0.75 -179.26)"/><path class="cls-1" d="M673.93,206h-6.34a.27.27,0,0,1-.27-.27.28.28,0,0,1,.27-.28h6.34a.28.28,0,0,1,.28.28A.27.27,0,0,1,673.93,206Z" transform="translate(-0.75 -179.26)"/></svg>