<svg xmlns="http://www.w3.org/2000/svg" viewBox="0 0 363.82 53.8"><defs><style>.cls-1{fill:#040836;}.cls-2{fill:#8bc6ec;}</style></defs><g id="object"><path class="cls-1" d="M243.46,282.13V251.57h-9.09V236.71h34.5v14.86h-9.09v30.56Z" transform="translate(-78.51 -229.54)"/><path class="cls-1" d="M273.27,282.13V250.05h15.11v4.5a14.08,14.08,0,0,1,4.5-4.14,11.08,11.08,0,0,1,5.49-1.38h.69l.42.05v15.57a13.14,13.14,0,0,0-2.39-1.05,6.54,6.54,0,0,0-2-.34,6.25,6.25,0,0,0-4.61,1.61,6.1,6.1,0,0,0-1.63,4.53v12.72Z" transform="translate(-78.51 -229.54)"/><path class="cls-1" d="M326.41,282.13v-4.84a16.91,16.91,0,0,1-4.87,4.57,11,11,0,0,1-5.62,1.48,11.29,11.29,0,0,1-9.26-4.75Q303,273.85,303,266.37q0-7.81,3.58-12.58a11.16,11.16,0,0,1,9.35-4.76,11.53,11.53,0,0,1,5.42,1.28,14.23,14.23,0,0,1,4.51,4v-4.25h14.92v32.08ZM317.91,266a4.85,4.85,0,0,0,1.1,3.3,3.66,3.66,0,0,0,2.9,1.26,3.69,3.69,0,0,0,2.92-1.25,4.85,4.85,0,0,0,1.08-3.31,5,5,0,0,0-1.1-3.39,3.67,3.67,0,0,0-2.9-1.27,3.62,3.62,0,0,0-2.9,1.29A5,5,0,0,0,317.91,266Z" transform="translate(-78.51 -229.54)"/><path class="cls-1" d="M355.91,282.13l-13.77-32.08h16.5l3.16,11.11c.38,1.22.65,2.18.81,2.9A15.45,15.45,0,0,1,363,266a30.22,30.22,0,0,1,.93-4c.11-.35.18-.6.22-.74l3.13-11.14h16.69L370,282.13Z" transform="translate(-78.51 -229.54)"/><path class="cls-1" d="M421.55,268.63l-22.12,0v.5a6.1,6.1,0,0,0,.89,3.64A3.11,3.11,0,0,0,403,274a2.92,2.92,0,0,0,1.89-.64,4.19,4.19,0,0,0,1.28-1.84l14.42,1a15.2,15.2,0,0,1-6.51,8,21.4,21.4,0,0,1-11.33,2.83,20.82,20.82,0,0,1-7-1.14,18.22,18.22,0,0,1-5.82-3.3,17.65,17.65,0,0,1-4.43-5.8,16.17,16.17,0,0,1,0-13.88,17.39,17.39,0,0,1,4.42-5.76,17.91,17.91,0,0,1,5.8-3.32,21.33,21.33,0,0,1,7-1.11,20.2,20.2,0,0,1,9.25,2.06,18.24,18.24,0,0,1,6.82,6,15.29,15.29,0,0,1,2.1,4.45,19.51,19.51,0,0,1,.69,5.32c0,.5,0,.87,0,1.12S421.57,268.45,421.55,268.63Zm-22-7,7,0a4.24,4.24,0,0,0-1-2.79,3.32,3.32,0,0,0-2.53-.9,3.19,3.19,0,0,0-2.4.95A4.68,4.68,0,0,0,399.56,261.65Z" transform="translate(-78.51 -229.54)"/><path class="cls-1" d="M426.76,282.13V234h15.58v48.09Z" transform="translate(-78.51 -229.54)"/><path class="cls-2" d="M78.51,282.13V236.71h30.37V249H94.52v4.37h13V265h-13v4.78h14.74v12.32Z" transform="translate(-78.51 -229.54)"/><path class="cls-2" d="M115.3,282.13V234h15.58v48.09Z" transform="translate(-78.51 -229.54)"/><path class="cls-2" d="M151.76,254.48a7.78,7.78,0,0,1-3.21.94,5.46,5.46,0,0,1-.83.07,5.24,5.24,0,0,1-1.79-.31,4.72,4.72,0,0,1-1.74-.6,4,4,0,0,1-.65-.41,4.16,4.16,0,0,1-.81-.43,4.88,4.88,0,0,1-.86-.51,4.42,4.42,0,0,1-.93-.65,8,8,0,0,1-1.37-1.09,11.05,11.05,0,0,1-1.34-1.1v31.74H153.8v-29.5A6,6,0,0,1,151.76,254.48Z" transform="translate(-78.51 -229.54)"/><path class="cls-2" d="M162.92,282.13V261.87h-4.43V250.05h4.43V239.44H178.5v10.61h4.43v11.82H178.5v20.26Z" transform="translate(-78.51 -229.54)"/><path class="cls-2" d="M223.48,268.63l-22.12,0v.5a6.1,6.1,0,0,0,.88,3.64,3.12,3.12,0,0,0,2.68,1.2,3,3,0,0,0,1.9-.64,4.26,4.26,0,0,0,1.27-1.84l14.42,1a15.2,15.2,0,0,1-6.51,8,21.36,21.36,0,0,1-11.32,2.83,20.88,20.88,0,0,1-7-1.14,18.07,18.07,0,0,1-5.81-3.3,17.55,17.55,0,0,1-4.44-5.8,16.22,16.22,0,0,1,0-13.88,17.13,17.13,0,0,1,4.42-5.76,17.81,17.81,0,0,1,5.8-3.32,21.28,21.28,0,0,1,7-1.11,20.19,20.19,0,0,1,9.24,2.06,18.27,18.27,0,0,1,6.83,6,15.27,15.27,0,0,1,2.09,4.45,19.13,19.13,0,0,1,.7,5.32c0,.5,0,.87,0,1.12S223.5,268.45,223.48,268.63Zm-22-7,7,0a4.24,4.24,0,0,0-.94-2.79,3.32,3.32,0,0,0-2.53-.9,3.18,3.18,0,0,0-2.4.95A4.69,4.69,0,0,0,201.48,261.65Z" transform="translate(-78.51 -229.54)"/><path class="cls-1" d="M150.84,248c-.46-2.92-.89-5.69-1.35-8.57l-.73.6a18.33,18.33,0,0,1-5.57,3.37,2.08,2.08,0,0,1-2-.17c-1.27-.8-2.58-1.55-3.88-2.33a1.74,1.74,0,0,1,1.76-.75,26.36,26.36,0,0,0,3.08.15,1.61,1.61,0,0,0,.93-.3q5.39-4.58,10.75-9.19a4.91,4.91,0,0,1,3.4-1.23c1.12,0,1.59.73,1.11,1.74a4.47,4.47,0,0,1-1.07,1.41c-1.05,1-2.14,1.86-3.24,2.77a1.21,1.21,0,0,0-.48.93c-.24,3-.53,6.07-.75,9.1A1.89,1.89,0,0,1,152,247C151.62,247.28,151.31,247.58,150.84,248Z" transform="translate(-78.51 -229.54)"/><path class="cls-1" d="M141,235.21c.84-.72,1.42-1.65,2.76-1.44s2.74.21,4.11.31l.46.06-2.9,2.43a.47.47,0,0,1-.38.08c-1.25-.39-2.5-.8-3.75-1.21C141.17,235.41,141.1,235.32,141,235.21Z" transform="translate(-78.51 -229.54)"/></g></svg>